<svg xmlns="http://www.w3.org/2000/svg" xmlns:xlink="http://www.w3.org/1999/xlink" width="1230" height="850" viewBox="0 0 1230 850">
  <defs>
    <clipPath id="clip-da-banner">
      <rect width="1230" height="850"/>
    </clipPath>
  </defs>
  <g id="da-banner" clip-path="url(#clip-da-banner)">
    <rect width="1230" height="850" fill="#76aada"/>
    <g id="R_Ball" transform="translate(200.1 278.9)">
      <g id="Group_4" data-name="Group 4" transform="translate(8.9 3.1)">
        <g id="Group_1" data-name="Group 1" transform="translate(311.065 70.337)">
          <path id="Path_8" data-name="Path 8" d="M689.378,275.96a55.923,55.923,0,0,0,29.4,8.326c16.883,0,26.727-8.924,26.727-21.8,0-11.73-6.808-18.769-24.059-25.209-20.839-7.59-33.719-18.585-33.719-36.387,0-19.919,16.469-34.685,41.31-34.685,12.88,0,22.541,3.036,28.061,6.256l-4.554,13.479c-4-2.484-12.513-6.072-24.059-6.072-17.435,0-24.059,10.442-24.059,19.137,0,11.96,7.774,17.8,25.393,24.657,21.621,8.326,32.431,18.769,32.431,37.538,0,19.689-14.4,36.94-44.53,36.94-12.329,0-25.761-3.772-32.615-8.326Z" transform="translate(-685.1 -161.508)" fill="#fff"/>
          <path id="Path_9" data-name="Path 9" d="M907.5,201.3v21.989h23.875v12.7H907.5v49.452c0,11.362,3.22,17.8,12.513,17.8a30.193,30.193,0,0,0,9.66-1.15l.736,12.7a45.1,45.1,0,0,1-14.767,2.254c-7.774,0-14.031-2.668-17.987-6.992-4.554-5.106-6.44-13.249-6.44-24.059v-50H877v-12.7h14.215V206.222Z" transform="translate(-788.722 -180.461)" fill="#fff"/>
          <path id="Path_10" data-name="Path 10" d="M1112.029,315.619c0,9.66.184,17.987.736,25.209H1098l-.966-14.951h-.368a34.262,34.262,0,0,1-30.315,17.067c-14.4,0-31.649-8.142-31.649-40.16V249.1h16.7v50.6c0,17.435,5.474,29.4,20.471,29.4,11.178,0,18.953-7.774,21.989-15.365a22.337,22.337,0,0,0,1.518-8.51V249.1h16.7v66.519Z" transform="translate(-873.877 -206.272)" fill="#fff"/>
          <path id="Path_11" data-name="Path 11" d="M1334.254,156V266.865c0,8.142.368,17.435.736,23.691h-14.767l-.736-15.917h-.552c-4.922,10.212-15.917,17.987-30.913,17.987-22.173,0-39.424-18.769-39.424-46.646-.184-30.5,18.953-49.084,41.126-49.084,14.215,0,23.507,6.624,27.693,13.847h.368V156Zm-16.515,80.135a30.118,30.118,0,0,0-.736-6.992,24.538,24.538,0,0,0-24.059-19.137c-17.251,0-27.463,15.181-27.463,35.237,0,18.585,9.292,33.949,27.1,33.949,11.178,0,21.437-7.59,24.427-19.919a29.79,29.79,0,0,0,.736-7.222Z" transform="translate(-989.378 -156)" fill="#fff"/>
          <path id="Path_12" data-name="Path 12" d="M1511.455,180.742c0,5.7-4,10.212-10.626,10.212-6.072,0-10.028-4.554-10.028-10.212a10.179,10.179,0,0,1,10.442-10.442A10.073,10.073,0,0,1,1511.455,180.742ZM1492.87,298.277V206.549h16.7v91.728Z" transform="translate(-1120.163 -163.722)" fill="#fff"/>
          <path id="Path_13" data-name="Path 13" d="M1666.958,291.914c0,33.9-23.691,48.716-45.68,48.716-24.657,0-43.978-18.217-43.978-47.2,0-30.5,20.287-48.532,45.5-48.532C1649.155,244.946,1666.958,264.083,1666.958,291.914Zm-72.591.966c0,20.1,11.362,35.237,27.693,35.237,15.917,0,27.877-14.951,27.877-35.651,0-15.549-7.774-35.053-27.463-35.053C1602.877,257.413,1594.367,275.629,1594.367,292.88Z" transform="translate(-1166.871 -204.004)" fill="#fff"/>
        </g>
        <g id="Group_2" data-name="Group 2">
          <path id="Path_14" data-name="Path 14" d="M325.646,206.771c0-16.331-11.822-22.771-26.819-22.771a198.091,198.091,0,0,0-22.127,1.518V230.6l11.178.23C315.158,231.244,325.646,220.755,325.646,206.771Z" transform="translate(-153.507 -100.783)" fill="#fff"/>
          <path id="Path_15" data-name="Path 15" d="M151.414,3.1A142.514,142.514,0,1,0,293.928,145.614,142.513,142.513,0,0,0,151.414,3.1Zm64.219,200.016h-23.6l-39.1-58.606H132.093v46.6h20.379v12.006H101.18V191.11H118.8V87.835L101.18,85.673V74.311a83.7,83.7,0,0,0,19.735,2.576c10.948,0,22.127-2.576,33.075-2.576,21.253,0,40.988,9.66,40.988,33.259,0,18.263-10.948,29.855-27.923,34.777l33.075,48.716h15.457v12.052Z" transform="translate(-8.9 -3.1)" fill="#fff"/>
        </g>
        <g id="Group_3" data-name="Group 3" transform="translate(791.002 76.961)">
          <path id="Path_16" data-name="Path 16" d="M1739.165,170.4a10.764,10.764,0,1,0,10.764,10.764A10.778,10.778,0,0,0,1739.165,170.4Zm9.016,10.764a8.97,8.97,0,1,1-8.97-8.97A8.982,8.982,0,0,1,1748.181,181.164Z" transform="translate(-1728.4 -170.4)" fill="#fff"/>
          <path id="Path_17" data-name="Path 17" d="M1749.408,191.15l-2.668-3.91a3.2,3.2,0,0,0,2.3-3.22c0-2.346-1.978-3.174-3.864-3.174a7.615,7.615,0,0,0-1.472.138c-.46.046-.966.092-1.426.092a6.617,6.617,0,0,1-1.7-.23l-.276-.046v1.518l1.564.184v8.648H1740.3v1.564h5.014V191.15h-1.794v-3.634h1.472l3.358,5.06.092.092h2.438V191.1h-1.472Zm-2.07-6.992a1.635,1.635,0,0,1-.644,1.334,3.946,3.946,0,0,1-2.3.552h-.874V182.5c.644-.046,1.2-.092,1.7-.092C1746.188,182.41,1747.338,182.732,1747.338,184.158Z" transform="translate(-1734.826 -176.016)" fill="#fff"/>
        </g>
      </g>
    </g>
  </g>
</svg>
