<svg xmlns="http://www.w3.org/2000/svg" xmlns:xlink="http://www.w3.org/1999/xlink" width="1230" height="850" viewBox="0 0 1230 850">
  <defs>
    <clipPath id="clip-path">
      <rect width="863" height="606" fill="none"/>
    </clipPath>
    <clipPath id="clip-path-2">
      <rect width="869" height="597" fill="none"/>
    </clipPath>
    <clipPath id="clip-ws-connect-1230X850">
      <rect width="1230" height="850"/>
    </clipPath>
  </defs>
  <g id="ws-connect-1230X850" clip-path="url(#clip-ws-connect-1230X850)">
    <rect width="1230" height="850" fill="#fff"/>
    <g id="Repeat_Grid_2" data-name="Repeat Grid 2" transform="translate(187.5 12)" opacity="0.27" clip-path="url(#clip-path)">
      <g transform="translate(-211.5 -635)">
        <line id="Line_17" data-name="Line 17" x2="864" transform="translate(211.5 635.5)" fill="none" stroke="#707070" stroke-width="1"/>
      </g>
      <g transform="translate(-211.5 -486)">
        <line id="Line_17-2" data-name="Line 17" x2="864" transform="translate(211.5 635.5)" fill="none" stroke="#707070" stroke-width="1"/>
      </g>
      <g transform="translate(-211.5 -337)">
        <line id="Line_17-3" data-name="Line 17" x2="864" transform="translate(211.5 635.5)" fill="none" stroke="#707070" stroke-width="1"/>
      </g>
      <g transform="translate(-211.5 -188)">
        <line id="Line_17-4" data-name="Line 17" x2="864" transform="translate(211.5 635.5)" fill="none" stroke="#707070" stroke-width="1"/>
      </g>
      <g transform="translate(-211.5 -39)">
        <line id="Line_17-5" data-name="Line 17" x2="864" transform="translate(211.5 635.5)" fill="none" stroke="#707070" stroke-width="1"/>
      </g>
    </g>
    <text id="_Friend_personal_message_" data-name="              Friend
(personal message)" transform="translate(210 632)" font-size="14" font-family="Montserrat-Medium, Montserrat" font-weight="500"><tspan x="0" y="0" xml:space="preserve">              Friend</tspan><tspan x="0" y="18">(personal message)</tspan></text>
    <text id="_Family_personal_message_" data-name="              Family
(personal message)" transform="translate(426 632)" font-size="14" font-family="Montserrat-Medium, Montserrat" font-weight="500"><tspan x="0" y="0" xml:space="preserve">              Family</tspan><tspan x="0" y="18">(personal message)</tspan></text>
    <text id="_Authentic_source_personal_message_" data-name="    Authentic source
(personal message)" transform="translate(642 632)" font-size="14" font-family="Montserrat-Medium, Montserrat" font-weight="500"><tspan x="0" y="0" xml:space="preserve">    Authentic source</tspan><tspan x="0" y="18">(personal message)</tspan></text>
    <text id="Strangers_friends_family_group_message_" data-name="Strangers/friends/family
             (group message)" transform="translate(858 637)" font-size="14" font-family="Montserrat-Medium, Montserrat" font-weight="500"><tspan x="0" y="0">Strangers/friends/family</tspan><tspan x="0" y="18" xml:space="preserve">             (group message)</tspan></text>
    <text id="_18-24_years" data-name="18-24 
years" transform="translate(112 525)" font-size="14" font-family="Montserrat-Medium, Montserrat" font-weight="500"><tspan x="0" y="0">18-24 </tspan><tspan x="0" y="18">years</tspan></text>
    <text id="_25-42_years" data-name="25-42
years" transform="translate(112 379)" font-size="14" font-family="Montserrat-Medium, Montserrat" font-weight="500"><tspan x="0" y="0">25-42</tspan><tspan x="0" y="18">years</tspan></text>
    <text id="_43-65_years_" data-name="43-65
years
" transform="translate(109 227)" font-size="14" font-family="Montserrat-Medium, Montserrat" font-weight="500"><tspan x="0" y="0">43-65</tspan><tspan x="0" y="18">years</tspan><tspan x="0" y="36"></tspan></text>
    <g id="Repeat_Grid_3" data-name="Repeat Grid 3" transform="translate(187 11.5)" opacity="0.27" clip-path="url(#clip-path-2)">
      <g transform="translate(-271 -129.5)">
        <line id="Line_16" data-name="Line 16" y2="597" transform="translate(271.5 129.5)" fill="none" stroke="#707070" stroke-width="1"/>
      </g>
      <g transform="translate(-55 -129.5)">
        <line id="Line_16-2" data-name="Line 16" y2="597" transform="translate(271.5 129.5)" fill="none" stroke="#707070" stroke-width="1"/>
      </g>
      <g transform="translate(161 -129.5)">
        <line id="Line_16-3" data-name="Line 16" y2="597" transform="translate(271.5 129.5)" fill="none" stroke="#707070" stroke-width="1"/>
      </g>
      <g transform="translate(377 -129.5)">
        <line id="Line_16-4" data-name="Line 16" y2="597" transform="translate(271.5 129.5)" fill="none" stroke="#707070" stroke-width="1"/>
      </g>
      <g transform="translate(593 -129.5)">
        <line id="Line_16-5" data-name="Line 16" y2="597" transform="translate(271.5 129.5)" fill="none" stroke="#707070" stroke-width="1"/>
      </g>
    </g>
    <rect id="Rectangle_1529" data-name="Rectangle 1529" width="879" height="157" transform="translate(177 3)" fill="#fff"/>
    <text id="TASK_MATRIX" data-name="TASK MATRIX" transform="translate(541 121)" font-size="23" font-family="Poppins-SemiBold, Poppins" font-weight="600"><tspan x="0" y="0">TASK MATRIX</tspan></text>
    <g id="Group_63" data-name="Group 63" transform="translate(0 -10)">
      <rect id="Rectangle_1" data-name="Rectangle 1" width="21" height="20" rx="10" transform="translate(193 758)" fill="#f8004c"/>
      <text id="Examination_model_read_" data-name="Examination model
(read )" transform="translate(231 772)" font-size="14" font-family="Poppins-Regular, Poppins" opacity="0.79"><tspan x="0" y="0">Examination model</tspan><tspan x="0" y="21">(read )</tspan></text>
    </g>
    <g id="Group_64" data-name="Group 64" transform="translate(241 -10)">
      <rect id="Rectangle_1-2" data-name="Rectangle 1" width="21" height="20" rx="10" transform="translate(193 758)"/>
      <text id="Neglect_model_ignore_" data-name="Neglect model
(ignore)" transform="translate(231 772)" font-size="14" font-family="Poppins-Regular, Poppins" opacity="0.8"><tspan x="0" y="0">Neglect model</tspan><tspan x="0" y="21">(ignore)</tspan></text>
    </g>
    <g id="Group_65" data-name="Group 65" transform="translate(448 -10)">
      <rect id="Rectangle_1-3" data-name="Rectangle 1" width="21" height="20" rx="10" transform="translate(193 758)" fill="#c9c9c9"/>
      <text id="Impression_model_provide_an_opinion_" data-name="Impression model
(provide an opinion)" transform="translate(231 772)" font-size="14" font-family="Poppins-Regular, Poppins" opacity="0.8"><tspan x="0" y="0">Impression model</tspan><tspan x="0" y="21">(provide an opinion)</tspan></text>
    </g>
    <rect id="Rectangle_1-4" data-name="Rectangle 1" width="36" height="36" rx="18" transform="translate(702 295)" fill="#f8004c"/>
    <rect id="Rectangle_1530" data-name="Rectangle 1530" width="16" height="15" rx="7.5" transform="translate(254 552)" fill="#f8004c"/>
    <rect id="Rectangle_1531" data-name="Rectangle 1531" width="38" height="36" rx="18" transform="translate(272 292)" fill="#f8004c"/>
    <rect id="Rectangle_1532" data-name="Rectangle 1532" width="40" height="40" rx="20" transform="translate(520 207)" fill="#f8004c"/>
    <g id="Group_66" data-name="Group 66" transform="translate(0 -10)">
      <rect id="Rectangle_1-5" data-name="Rectangle 1" width="21" height="20" rx="10" transform="translate(888 758)" fill="#cad4f9"/>
      <text id="Exploration_model_verify_" data-name="Exploration model 
(verify)" transform="translate(926 772)" font-size="14" font-family="Poppins-Regular, Poppins" opacity="0.8"><tspan x="0" y="0">Exploration model </tspan><tspan x="0" y="21">(verify)</tspan></text>
    </g>
    <rect id="Rectangle_1533" data-name="Rectangle 1533" width="37" height="36" rx="18" transform="translate(652 439)" fill="#cad4f9"/>
    <rect id="Rectangle_1534" data-name="Rectangle 1534" width="32" height="31" rx="15.5" transform="translate(387 344)" fill="#cad4f9"/>
    <rect id="Rectangle_1535" data-name="Rectangle 1535" width="47" height="45" rx="22.5" transform="translate(967 321)" fill="#cad4f9"/>
    <rect id="Rectangle_1536" data-name="Rectangle 1536" width="45" height="43" rx="21.5" transform="translate(455 435)"/>
    <rect id="Rectangle_1537" data-name="Rectangle 1537" width="55" height="52" rx="26" transform="translate(899 437)"/>
    <text id="Topic_of_interest" data-name="Topic of interest" transform="translate(247 346)" font-size="11" font-family="Poppins-Regular, Poppins" opacity="0.88"><tspan x="0" y="0">Topic of interest</tspan></text>
    <text id="Short_message" data-name="Short message" transform="translate(217 585)" font-size="11" font-family="Poppins-Regular, Poppins" opacity="0.88"><tspan x="0" y="0">Short message</tspan></text>
    <rect id="Rectangle_1539" data-name="Rectangle 1539" width="18" height="17" rx="8.5" transform="translate(344 417)" fill="#c9c9c9"/>
    <rect id="Rectangle_1540" data-name="Rectangle 1540" width="22" height="22" rx="11" transform="translate(251 394)"/>
    <text id="Long_message" data-name="Long message" transform="translate(222 431)" font-size="11" font-family="Poppins-Regular, Poppins" opacity="0.88"><tspan x="0" y="0">Long message</tspan></text>
    <text id="Educate_sender" data-name="Educate sender" transform="translate(310 449)" font-size="11" font-family="Poppins-Regular, Poppins" opacity="0.88"><tspan x="0" y="0">Educate sender</tspan></text>
    <text id="Bulk_messages" data-name="Bulk messages" transform="translate(436 493)" font-size="11" font-family="Poppins-Regular, Poppins" opacity="0.88"><tspan x="0" y="0">Bulk messages</tspan></text>
    <text id="Culture_specific_information" data-name="Culture specific
information" transform="translate(504 264)" font-size="11" font-family="Poppins-Regular, Poppins" opacity="0.88"><tspan x="0" y="0">Culture specific</tspan><tspan x="0" y="17">information</tspan></text>
    <rect id="Rectangle_1541" data-name="Rectangle 1541" width="38" height="36" rx="18" transform="translate(913 235)" fill="#f8004c"/>
    <text id="Topic_of_interest-2" data-name="Topic of interest" transform="translate(888 289)" font-size="11" font-family="Poppins-Regular, Poppins" opacity="0.88"><tspan x="0" y="0">Topic of interest</tspan></text>
    <text id="Current_affairs" data-name="Current affairs" transform="translate(681 348)" font-size="11" font-family="Poppins-Regular, Poppins" opacity="0.88"><tspan x="0" y="0">Current affairs</tspan></text>
    <text id="Verify_on_internet" data-name="Verify on
internet" transform="translate(382 390)" font-size="11" font-family="Poppins-Regular, Poppins" opacity="0.88"><tspan x="0" y="0">Verify on</tspan><tspan x="0" y="17">internet</tspan></text>
    <text id="Biased_sources" data-name="Biased
sources" transform="translate(652 493)" font-size="11" font-family="Poppins-Regular, Poppins" opacity="0.88"><tspan x="0" y="0">Biased</tspan><tspan x="0" y="17">sources</tspan></text>
    <text id="Bulk_messages-2" data-name="Bulk messages" transform="translate(886 507)" font-size="11" font-family="Poppins-Regular, Poppins" opacity="0.88"><tspan x="0" y="0">Bulk messages</tspan></text>
    <text id="Verify_on_internet-2" data-name="Verify on
internet" transform="translate(971 380)" font-size="11" font-family="Poppins-Regular, Poppins" opacity="0.88"><tspan x="0" y="0">Verify on</tspan><tspan x="0" y="17">internet</tspan></text>
    <rect id="Rectangle_1542" data-name="Rectangle 1542" width="34" height="33" rx="16.5" transform="translate(872 368)" fill="#c9c9c9"/>
    <text id="Educate_sender-2" data-name="Educate sender" transform="translate(846 414)" font-size="11" font-family="Poppins-Regular, Poppins" opacity="0.88"><tspan x="0" y="0">Educate sender</tspan></text>
    <rect id="Rectangle_1543" data-name="Rectangle 1543" width="22" height="22" rx="11" transform="translate(765 547)"/>
    <text id="Long_message-2" data-name="Long message" transform="translate(736 584)" font-size="11" font-family="Poppins-Regular, Poppins" opacity="0.88"><tspan x="0" y="0">Long message</tspan></text>
    <rect id="Rectangle_1544" data-name="Rectangle 1544" width="22" height="22" rx="11" transform="translate(984 519)"/>
    <text id="Old_messages" data-name="Old messages" transform="translate(955 556)" font-size="11" font-family="Poppins-Regular, Poppins" opacity="0.88"><tspan x="0" y="0">Old messages</tspan></text>
    <line id="Line_18" data-name="Line 18" y2="134" transform="translate(87.5 463.5)" fill="none" stroke="#707070" stroke-width="1" opacity="0.35"/>
    <text id="AGE_DISTRIBUTION" data-name="AGE DISTRIBUTION" transform="translate(93 427) rotate(-90)" font-size="14" font-family="Poppins-Medium, Poppins" font-weight="500" opacity="0.41"><tspan x="0" y="0">AGE DISTRIBUTION</tspan></text>
    <line id="Line_19" data-name="Line 19" x1="272" transform="translate(198.5 691.5)" fill="none" stroke="#707070" stroke-width="1" opacity="0.36"/>
    <text id="Bubble_size_is_based_on_task_frequency" data-name="Bubble size is based on task  frequency" transform="translate(840 810)" font-size="11" font-family="Poppins-Medium, Poppins" font-weight="500" opacity="0.7"><tspan x="0" y="0" xml:space="preserve">Bubble size is based on task  frequency</tspan></text>
    <line id="Line_21" data-name="Line 21" y2="107" transform="translate(88.5 160.5)" fill="none" stroke="#707070" stroke-width="1" opacity="0.35"/>
    <g id="Group_67" data-name="Group 67" transform="translate(0.5)">
      <line id="Line_20" data-name="Line 20" x1="288" transform="translate(749.5 691.5)" fill="none" stroke="#707070" stroke-width="1" opacity="0.36"/>
      <path id="Icon_ionic-ios-arrow-forward" data-name="Icon ionic-ios-arrow-forward" d="M20.679,18,11.742,9.07a1.681,1.681,0,0,1,0-2.384,1.7,1.7,0,0,1,2.391,0L24.258,16.8a1.685,1.685,0,0,1,.049,2.327L14.14,29.32a1.688,1.688,0,0,1-2.391-2.384Z" transform="translate(1014 673.304)" fill="#707070" stroke="#fff" stroke-width="2.3" opacity="0.44"/>
    </g>
    <path id="Icon_ionic-ios-arrow-forward-2" data-name="Icon ionic-ios-arrow-forward" d="M9.432,11.813.5,20.742a1.681,1.681,0,0,0,0,2.384,1.7,1.7,0,0,0,2.391,0L13.011,13.008a1.685,1.685,0,0,0,.049-2.327L2.893.492A1.688,1.688,0,0,0,.5,2.876Z" transform="translate(77.19 170.06) rotate(-90)" fill="#707070" stroke="#fff" stroke-width="2.3" opacity="0.44"/>
    <rect id="Rectangle_1545" data-name="Rectangle 1545" width="22" height="22" rx="11" transform="translate(549 531)"/>
    <text id="Repeated_messages" data-name="Repeated
 messages" transform="translate(529 570)" font-size="11" font-family="Poppins-Regular, Poppins" opacity="0.88"><tspan x="0" y="0">Repeated</tspan><tspan x="0" y="17" xml:space="preserve"> messages</tspan></text>
    <text id="TYPE_OF_MESSAGE_RECEIVED" data-name="TYPE OF MESSAGE RECEIVED" transform="translate(517 696)" font-size="14" font-family="Poppins-Medium, Poppins" font-weight="500" opacity="0.41"><tspan x="0" y="0">TYPE OF MESSAGE RECEIVED</tspan></text>
  </g>
</svg>
