<svg xmlns="http://www.w3.org/2000/svg" xmlns:xlink="http://www.w3.org/1999/xlink" width="1230" height="850" viewBox="0 0 1230 850">
  <defs>
    <clipPath id="clip-ws-engage-1230X850">
      <rect width="1230" height="850"/>
    </clipPath>
  </defs>
  <g id="ws-engage-1230X850" clip-path="url(#clip-ws-engage-1230X850)">
    <rect width="1230" height="850" fill="#fff"/>
    <path id="Path_47" data-name="Path 47" d="M35.332,0H1136.668C1156.182,0,1172,16.087,1172,35.932V709.4c0,19.845-15.818,35.932-35.332,35.932H35.332C15.819,745.333,0,729.246,0,709.4V35.932C0,16.087,15.819,0,35.332,0Z" transform="translate(32 53)" fill="#fff"/>
    <line id="Line_15" data-name="Line 15" x2="817.459" transform="translate(193.341 201.874)" fill="none" stroke="#000" stroke-width="1" opacity="0.17"/>
    <g id="Group_52" data-name="Group 52" transform="translate(90 138.4)">
      <path id="background_color_border_" data-name="background [color_border]" d="M126.6,63.3A63.3,63.3,0,1,1,63.3,0,63.3,63.3,0,0,1,126.6,63.3Z" fill="#f9f9f9"/>
      <text id="label" transform="translate(63 58.945)" font-size="14" font-family="Montserrat-Bold, Montserrat" font-weight="700"><tspan x="-28.511" y="0">Identify</tspan><tspan x="-47.719" y="18">project goals</tspan></text>
    </g>
    <path id="background_color_border_2" data-name="background [color_border]" d="M126.6,63.3A63.3,63.3,0,1,1,63.3,0,63.3,63.3,0,0,1,126.6,63.3Z" transform="translate(302.435 138.4)" fill="#f9f9f9"/>
    <text id="label-2" data-name="label" transform="translate(362.496 197.345)" font-size="14" font-family="Montserrat-Bold, Montserrat" font-weight="700"><tspan x="-16.387" y="0">Plan</tspan><tspan x="-47.243" y="18">usability test</tspan></text>
    <path id="background_color_border_3" data-name="background [color_border]" d="M126.6,63.3A63.3,63.3,0,1,1,63.3,0,63.3,63.3,0,0,1,126.6,63.3Z" transform="translate(543.99 138.4)" fill="#f9f9f9"/>
    <text id="label-3" data-name="label" transform="translate(572.062 207.345)" font-size="14" font-family="Montserrat-Bold, Montserrat" font-weight="700"><tspan x="0" y="0">Conduct</tspan></text>
    <g id="Group_58" data-name="Group 58" transform="translate(781.486 138.4)">
      <path id="background_color_border_4" data-name="background [color_border]" d="M126.6,63.3A63.3,63.3,0,1,1,63.3,0,63.3,63.3,0,0,1,126.6,63.3Z" fill="#f9f9f9"/>
      <text id="label-4" data-name="label" transform="translate(34.365 68.945)" font-size="14" font-family="Montserrat-Bold, Montserrat" font-weight="700"><tspan x="0" y="0">Analyze</tspan></text>
    </g>
    <g id="Group_59" data-name="Group 59" transform="translate(1004.301 138.4)">
      <path id="background_color_border_5" data-name="background [color_border]" d="M126.6,63.3A63.3,63.3,0,1,1,63.3,0,63.3,63.3,0,0,1,126.6,63.3Z" fill="#f9f9f9"/>
      <text id="label-5" data-name="label" transform="translate(34 58.945)" font-size="14" font-family="Montserrat-Bold, Montserrat" font-weight="700"><tspan x="0" y="0">Present</tspan><tspan x="0" y="18">findings</tspan></text>
    </g>
    <g id="Group_53" data-name="Group 53" transform="translate(82 501.9)">
      <g id="man" transform="translate(79.541)">
        <path id="Path_48" data-name="Path 48" d="M112.129,44.7v4.973a.842.842,0,0,1-1.684,0V44.7A7,7,0,0,0,103.44,37.7a5.169,5.169,0,0,1-4.447-2.5.842.842,0,0,1,1.438-.876,3.5,3.5,0,0,0,3.009,1.689,8.685,8.685,0,0,1,8.69,8.689ZM97.438,36.266a.842.842,0,0,1-.643,1,8.058,8.058,0,0,1-6.263-1.225A5.106,5.106,0,0,1,86.723,37.7,7,7,0,0,0,79.717,44.7v4.973a.842.842,0,1,1-1.684,0V44.7a8.685,8.685,0,0,1,8.689-8.689,3.51,3.51,0,0,0,3.518-3.509v-.222a11.278,11.278,0,0,1-6.411-9.749,3.435,3.435,0,0,1-2.639-3.328V14.844c-.046-2.136.271-7.487,4.172-11.247C90.18-1.047,97.9-.752,103.585,1.982a.844.844,0,0,1,.178,1.4,11.363,11.363,0,0,1,6.953,5,.93.93,0,0,1,.194.662.852.852,0,0,1-.242.534,5.5,5.5,0,0,0-1.591,3.883v5.743a.842.842,0,0,1-1.684,0V13.466a7.166,7.166,0,0,1,1.636-4.576,9.725,9.725,0,0,0-6.98-4.1l-1.48-.158a.843.843,0,0,1-.231-1.616l.673-.277c-8.765-3.056-18.137.339-18.137,12.095v4.374a1.738,1.738,0,0,0,.947,1.54V15.29A5.9,5.9,0,0,1,89.714,9.4h10.734a5.9,5.9,0,0,1,5.893,5.893v6.893a11.276,11.276,0,0,1-14.435,10.74,5.147,5.147,0,0,1-.441,1.719,6.375,6.375,0,0,0,4.97.98A.842.842,0,0,1,97.438,36.266ZM95.081,31.7a9.587,9.587,0,0,0,9.576-9.576V15.29a4.214,4.214,0,0,0-4.209-4.209H89.714A4.214,4.214,0,0,0,85.5,15.29v6.829A9.587,9.587,0,0,0,95.081,31.7Zm8.524,14.509H101.08a.842.842,0,0,0,0,1.684h2.526a.842.842,0,1,0,0-1.684Z" transform="translate(-78.033 0)" fill="#565656"/>
      </g>
      <g id="woman">
        <path id="Path_49" data-name="Path 49" d="M77.41,25.092a1.656,1.656,0,0,0-.589,1.812,6.323,6.323,0,0,1-2.686,7.075.825.825,0,0,1-.9-1.386,4.665,4.665,0,0,0,2-5.212,3.335,3.335,0,0,1,1.171-3.6,4.677,4.677,0,0,0,0-7.323,3.335,3.335,0,0,1-1.171-3.6,4.678,4.678,0,0,0-4.3-5.924A3.335,3.335,0,0,1,67.872,4.7a4.677,4.677,0,0,0-6.964-2.263,3.335,3.335,0,0,1-3.789,0A4.677,4.677,0,0,0,50.154,4.7a3.334,3.334,0,0,1-3.065,2.227,4.677,4.677,0,0,0-4.3,5.924,3.335,3.335,0,0,1-1.171,3.6,4.677,4.677,0,0,0,0,7.323,3.335,3.335,0,0,1,1.171,3.6,4.677,4.677,0,0,0,4.3,5.924,3.335,3.335,0,0,1,2.986,2.025c.437-.038.746-.034.746-.034a3.44,3.44,0,0,0,3.448-3.439V31.64a11.05,11.05,0,0,1-6.292-9.963.825.825,0,1,1,1.65,0,9.386,9.386,0,0,0,18.772,0V17.459a6.609,6.609,0,0,0-6.6-6.6H58.929a14.425,14.425,0,0,1-12.384,9.117.825.825,0,1,1-.162-1.642c5.669-.56,10.4-4.251,11.581-10.07a.825.825,0,0,1,1.617.329c-.042.208-.09.412-.14.616H61.8a8.261,8.261,0,0,1,8.252,8.252c0,.018,0,4.285,0,4.3A11.048,11.048,0,0,1,55.9,32.266a5.055,5.055,0,0,1-1.891,3.563l5,3.874,2.943-2.278a.825.825,0,0,1,1.01,1.305L59.839,41.15v7.537a.825.825,0,1,1-1.65,0V41.15l-5.762-4.461a5.118,5.118,0,0,1-1.605.258,6.862,6.862,0,0,0-6.867,6.866v4.874a.825.825,0,1,1-1.65,0V43.813a8.517,8.517,0,0,1,6.073-8.162,1.654,1.654,0,0,0-1.322-.7A6.326,6.326,0,0,1,41.205,26.9a1.656,1.656,0,0,0-.589-1.812,6.326,6.326,0,0,1,0-9.951,1.656,1.656,0,0,0,.589-1.812,6.326,6.326,0,0,1,5.849-8.051A1.656,1.656,0,0,0,48.6,4.158a6.326,6.326,0,0,1,9.464-3.075,1.656,1.656,0,0,0,1.906,0A6.326,6.326,0,0,1,69.43,4.158a1.656,1.656,0,0,0,1.542,1.12,6.326,6.326,0,0,1,5.849,8.051,1.656,1.656,0,0,0,.589,1.812,6.326,6.326,0,0,1,0,9.951Zm-10.2,10.2a3.428,3.428,0,0,1-2.949-1.656.825.825,0,0,0-1.409.858,5.066,5.066,0,0,0,4.359,2.448,6.863,6.863,0,0,1,6.867,6.866v4.874a.825.825,0,1,0,1.65,0V43.813A8.512,8.512,0,0,0,67.206,35.3Z" transform="translate(-38.197 -0.001)" fill="#565656"/>
      </g>
      <g id="man_1_" data-name="man (1)" transform="translate(79.458 80.721)">
        <path id="Path_50" data-name="Path 50" d="M104.654,37.777a3.669,3.669,0,0,1-3.157-1.772.883.883,0,1,0-1.509.919,5.449,5.449,0,0,0,1.847,1.841l-.915,4.154-2.207-2.541a.885.885,0,1,0-1.287-1.212l-1.553,1.786-3.912-4.346a5.394,5.394,0,0,0,.592-2.072A11.826,11.826,0,0,0,107.7,23.2c0-7.491.009-7.372-.021-7.679a.884.884,0,1,0-1.758.173c.02.2.013.375.013,7.505a10.047,10.047,0,1,1-20.093,0c0-1.99-.021-3.53-.028-4.686a4.494,4.494,0,0,1,5.563-4.406c4.146.994,5.71,3.534,10.983,3.288a.883.883,0,0,0-.083-1.764c-4.742.224-6-2.166-10.488-3.242a6.26,6.26,0,0,0-7.742,6.134c.006.939.018,1.968.025,3.234a1.824,1.824,0,0,1-.99-1.614V11.868a10.113,10.113,0,0,1,10.1-10.1H98.7a10.113,10.113,0,0,1,10.1,10.1v8.276a.883.883,0,1,0,1.766,0V11.868A11.882,11.882,0,0,0,98.7,0H93.18A11.882,11.882,0,0,0,81.312,11.868v8.276a3.6,3.6,0,0,0,2.769,3.491,11.831,11.831,0,0,0,6.726,10.228V34.1a3.684,3.684,0,0,1-3.691,3.681A9.111,9.111,0,0,0,78,46.893v5.217a.883.883,0,0,0,1.766,0V46.893a7.346,7.346,0,0,1,7.35-7.35,5.512,5.512,0,0,0,1.154-.123L89.5,45.014a.884.884,0,0,0,1.529.389l3.178-3.66c.995,1.105,1.022,1.142,1.1,1.208a.883.883,0,0,0,1.084.058c.112-.078.051-.017,1.154-1.285l3.2,3.679a.884.884,0,0,0,1.529-.389l1.232-5.593a5.546,5.546,0,0,0,1.154.123,7.346,7.346,0,0,1,7.35,7.35v5.217a.883.883,0,1,0,1.766,0V46.893a9.111,9.111,0,0,0-9.116-9.116Zm-13.8,5.142-.916-4.155a5.479,5.479,0,0,0,.944-.722l2.142,2.379Zm10.131-17.582c-1.7.179-1.7-1.085-3.109-1.458a2.938,2.938,0,0,0-1.986.232,2.937,2.937,0,0,0-1.986-.232c-1.414.374-1.411,1.638-3.109,1.458a.884.884,0,0,0-.895,1.25,4.612,4.612,0,0,0,3.5,2.546,4.223,4.223,0,0,0,2.492-.56,4.207,4.207,0,0,0,2.492.56,4.612,4.612,0,0,0,3.5-2.546.884.884,0,0,0-.894-1.25Zm-4.547,1.484a.883.883,0,0,0-1.1,0,2.35,2.35,0,0,1-2.956.077c1.77-.634,1.494-1.937,3.063-1.03a.883.883,0,0,0,.884,0c1.565-.9,1.3.4,3.063,1.03A2.351,2.351,0,0,1,96.434,26.821Z" transform="translate(-78 0)" fill="#565656"/>
      </g>
      <g id="woman_1_" data-name="woman (1)" transform="translate(0 80.161)">
        <path id="Path_51" data-name="Path 51" d="M107.519,42.652a19.892,19.892,0,0,1-17.794-3.474,5.474,5.474,0,0,0,2.924-4.419,11.9,11.9,0,0,0,14.95-8.775.889.889,0,1,0-1.734-.392A10.114,10.114,0,0,1,85.89,23.35V17.871a9.682,9.682,0,0,0,5.088-4.249,25.892,25.892,0,0,0,21.764,8.6.89.89,0,0,0,.592-1.478L113,20.368a8.713,8.713,0,0,1-2.216-5.81V11.946A11.96,11.96,0,0,0,98.836,0H93.28A11.96,11.96,0,0,0,81.334,11.946v9.5a3.674,3.674,0,0,0,2.9,3.586,11.923,11.923,0,0,0,6.66,9.051v.235a3.706,3.706,0,0,1-3.715,3.705A9.17,9.17,0,0,0,78,47.2v5.251a.889.889,0,0,0,1.778,0V47.2a7.394,7.394,0,0,1,7.4-7.4c.163,0,.324-.008.485-.022A21.7,21.7,0,0,0,108,44.365a.889.889,0,0,0-.477-1.713ZM84.112,17.225v5.889a1.891,1.891,0,0,1-1-1.667v-9.5A10.18,10.18,0,0,1,93.28,1.778h5.556A10.18,10.18,0,0,1,109,11.946v2.611a10.488,10.488,0,0,0,1.864,5.973,23.966,23.966,0,0,1-19.392-9.082.889.889,0,0,0-1.522.225,7.915,7.915,0,0,1-5.2,4.7.889.889,0,0,0-.646.855ZM114,47.2v5.251a.889.889,0,0,1-1.778,0V47.2a7.394,7.394,0,0,0-7.4-7.4,5.458,5.458,0,0,1-4.7-2.637.889.889,0,0,1,1.518-.925,3.693,3.693,0,0,0,3.178,1.784A9.171,9.171,0,0,1,114,47.2Z" transform="translate(-78)" fill="#565656"/>
      </g>
      <text id="PM" transform="translate(5 67.1)" fill="#565656" font-size="19" font-family="Poppins-Regular, Poppins"><tspan x="0" y="0">PM</tspan></text>
      <text id="UXD" transform="translate(77 67.1)" fill="#565656" font-size="19" font-family="Poppins-Regular, Poppins"><tspan x="0" y="0">UXD</tspan></text>
      <text id="Dev" transform="translate(0 152.1)" fill="#565656" font-size="19" font-family="Poppins-Regular, Poppins"><tspan x="0" y="0">Dev</tspan></text>
      <text id="Data" transform="translate(73 152.1)" fill="#565656" font-size="19" font-family="Poppins-Regular, Poppins"><tspan x="0" y="0">Data</tspan></text>
      <g id="woman_2_" data-name="woman (2)" transform="translate(33.476 165.081)">
        <g id="Group_45" data-name="Group 45" transform="translate(0)">
          <g id="Group_44" data-name="Group 44">
            <path id="Path_52" data-name="Path 52" d="M40.9,36.75h-.75V16.5a16.5,16.5,0,0,0-33,0V36.75H6.4A5.257,5.257,0,0,0,1.148,42v3h1.5V42A3.754,3.754,0,0,1,6.4,38.25H11.84l2.089,6.965,1.437-.431-1.693-5.645,9.589,5.753a.749.749,0,0,0,.772,0l9.589-5.753-1.693,5.644,1.437.431,2.09-6.964H40.9A3.754,3.754,0,0,1,44.648,42v3h1.5V42A5.257,5.257,0,0,0,40.9,36.75Zm-17.25,6.625L15.105,38.25h2.542a.749.749,0,0,0,.75-.75V33.256A11.661,11.661,0,0,0,23.5,34.5h.3a11.668,11.668,0,0,0,5.1-1.243V37.5a.749.749,0,0,0,.75.75H32.19Zm.817-24.625H22.83a4.494,4.494,0,0,0-8.657-.785l-1.025-1.025V14.953a6.014,6.014,0,0,0,4.716-3.479c1.491,1.834,4.618,3.325,8.686,4.194A4.506,4.506,0,0,0,24.465,18.75ZM28.9,16.5a3,3,0,1,1-3,3A3,3,0,0,1,28.9,16.5Zm-7.5,3a3,3,0,1,1-3-3A3,3,0,0,1,21.4,19.5Zm-7.483.327a4.495,4.495,0,0,0,8.916.423h1.636a4.495,4.495,0,0,0,8.916-.423l.766-.767v3.256A10.616,10.616,0,0,1,23.777,33h-.263A10.615,10.615,0,0,1,13.148,22.317V19.06Zm18.249-3.415c.651.04,1.31.07,1.985.082v.445h0l-1.025,1.025A4.506,4.506,0,0,0,32.163,16.412ZM38.648,36.75H30.4V32.382a12.258,12.258,0,0,0,5.25-10.065V15.75A.749.749,0,0,0,34.9,15c-9.87,0-16.5-3.1-16.5-6a.75.75,0,0,0-1.5,0,4.5,4.5,0,0,1-4.5,4.5.749.749,0,0,0-.75.75v8.067A12.26,12.26,0,0,0,16.9,32.383V36.75H8.648V16.5a15,15,0,0,1,30,0Z" transform="translate(-1.148)" fill="#565656"/>
          </g>
        </g>
      </g>
      <text id="UXR" transform="translate(38 230.1)" fill="#565656" font-size="19" font-family="Poppins-Regular, Poppins"><tspan x="0" y="0">UXR</tspan></text>
    </g>
    <g id="man-2" data-name="man" transform="translate(395.935 500.912)">
      <path id="Path_48-2" data-name="Path 48" d="M112.129,44.7v4.973a.842.842,0,0,1-1.684,0V44.7A7,7,0,0,0,103.44,37.7a5.169,5.169,0,0,1-4.447-2.5.842.842,0,0,1,1.438-.876,3.5,3.5,0,0,0,3.009,1.689,8.685,8.685,0,0,1,8.69,8.689ZM97.438,36.266a.842.842,0,0,1-.643,1,8.058,8.058,0,0,1-6.263-1.225A5.106,5.106,0,0,1,86.723,37.7,7,7,0,0,0,79.717,44.7v4.973a.842.842,0,1,1-1.684,0V44.7a8.685,8.685,0,0,1,8.689-8.689,3.51,3.51,0,0,0,3.518-3.509v-.222a11.278,11.278,0,0,1-6.411-9.749,3.435,3.435,0,0,1-2.639-3.328V14.844c-.046-2.136.271-7.487,4.172-11.247C90.18-1.047,97.9-.752,103.585,1.982a.844.844,0,0,1,.178,1.4,11.363,11.363,0,0,1,6.953,5,.93.93,0,0,1,.194.662.852.852,0,0,1-.242.534,5.5,5.5,0,0,0-1.591,3.883v5.743a.842.842,0,0,1-1.684,0V13.466a7.166,7.166,0,0,1,1.636-4.576,9.725,9.725,0,0,0-6.98-4.1l-1.48-.158a.843.843,0,0,1-.231-1.616l.673-.277c-8.765-3.056-18.137.339-18.137,12.095v4.374a1.738,1.738,0,0,0,.947,1.54V15.29A5.9,5.9,0,0,1,89.714,9.4h10.734a5.9,5.9,0,0,1,5.893,5.893v6.893a11.276,11.276,0,0,1-14.435,10.74,5.147,5.147,0,0,1-.441,1.719,6.375,6.375,0,0,0,4.97.98A.842.842,0,0,1,97.438,36.266ZM95.081,31.7a9.587,9.587,0,0,0,9.576-9.576V15.29a4.214,4.214,0,0,0-4.209-4.209H89.714A4.214,4.214,0,0,0,85.5,15.29v6.829A9.587,9.587,0,0,0,95.081,31.7Zm8.524,14.509H101.08a.842.842,0,0,0,0,1.684h2.526a.842.842,0,1,0,0-1.684Z" transform="translate(-78.033 0)" fill="#565656"/>
    </g>
    <g id="woman-2" data-name="woman" transform="translate(315.334 500.908)" opacity="0.18">
      <path id="Path_49-2" data-name="Path 49" d="M77.41,25.092a1.656,1.656,0,0,0-.589,1.812,6.323,6.323,0,0,1-2.686,7.075.825.825,0,0,1-.9-1.386,4.665,4.665,0,0,0,2-5.212,3.335,3.335,0,0,1,1.171-3.6,4.677,4.677,0,0,0,0-7.323,3.335,3.335,0,0,1-1.171-3.6,4.678,4.678,0,0,0-4.3-5.924A3.335,3.335,0,0,1,67.872,4.7a4.677,4.677,0,0,0-6.964-2.263,3.335,3.335,0,0,1-3.789,0A4.677,4.677,0,0,0,50.154,4.7a3.334,3.334,0,0,1-3.065,2.227,4.677,4.677,0,0,0-4.3,5.924,3.335,3.335,0,0,1-1.171,3.6,4.677,4.677,0,0,0,0,7.323,3.335,3.335,0,0,1,1.171,3.6,4.677,4.677,0,0,0,4.3,5.924,3.335,3.335,0,0,1,2.986,2.025c.437-.038.746-.034.746-.034a3.44,3.44,0,0,0,3.448-3.439V31.64a11.05,11.05,0,0,1-6.292-9.963.825.825,0,1,1,1.65,0,9.386,9.386,0,0,0,18.772,0V17.459a6.609,6.609,0,0,0-6.6-6.6H58.929a14.425,14.425,0,0,1-12.384,9.117.825.825,0,1,1-.162-1.642c5.669-.56,10.4-4.251,11.581-10.07a.825.825,0,0,1,1.617.329c-.042.208-.09.412-.14.616H61.8a8.261,8.261,0,0,1,8.252,8.252c0,.018,0,4.285,0,4.3A11.048,11.048,0,0,1,55.9,32.266a5.055,5.055,0,0,1-1.891,3.563l5,3.874,2.943-2.278a.825.825,0,0,1,1.01,1.305L59.839,41.15v7.537a.825.825,0,1,1-1.65,0V41.15l-5.762-4.461a5.118,5.118,0,0,1-1.605.258,6.862,6.862,0,0,0-6.867,6.866v4.874a.825.825,0,1,1-1.65,0V43.813a8.517,8.517,0,0,1,6.073-8.162,1.654,1.654,0,0,0-1.322-.7A6.326,6.326,0,0,1,41.205,26.9a1.656,1.656,0,0,0-.589-1.812,6.326,6.326,0,0,1,0-9.951,1.656,1.656,0,0,0,.589-1.812,6.326,6.326,0,0,1,5.849-8.051A1.656,1.656,0,0,0,48.6,4.158a6.326,6.326,0,0,1,9.464-3.075,1.656,1.656,0,0,0,1.906,0A6.326,6.326,0,0,1,69.43,4.158a1.656,1.656,0,0,0,1.542,1.12,6.326,6.326,0,0,1,5.849,8.051,1.656,1.656,0,0,0,.589,1.812,6.326,6.326,0,0,1,0,9.951Zm-10.2,10.2a3.428,3.428,0,0,1-2.949-1.656.825.825,0,0,0-1.409.858,5.066,5.066,0,0,0,4.359,2.448,6.863,6.863,0,0,1,6.867,6.866v4.874a.825.825,0,1,0,1.65,0V43.813A8.512,8.512,0,0,0,67.206,35.3Z" transform="translate(-38.197 -0.001)" fill="#565656"/>
    </g>
    <g id="man_1_2" data-name="man (1)" transform="translate(395.858 582.071)" opacity="0.17">
      <path id="Path_50-2" data-name="Path 50" d="M104.654,37.777a3.669,3.669,0,0,1-3.157-1.772.883.883,0,1,0-1.509.919,5.449,5.449,0,0,0,1.847,1.841l-.915,4.154-2.207-2.541a.885.885,0,1,0-1.287-1.212l-1.553,1.786-3.912-4.346a5.394,5.394,0,0,0,.592-2.072A11.826,11.826,0,0,0,107.7,23.2c0-7.491.009-7.372-.021-7.679a.884.884,0,1,0-1.758.173c.02.2.013.375.013,7.505a10.047,10.047,0,1,1-20.093,0c0-1.99-.021-3.53-.028-4.686a4.494,4.494,0,0,1,5.563-4.406c4.146.994,5.71,3.534,10.983,3.288a.883.883,0,0,0-.083-1.764c-4.742.224-6-2.166-10.488-3.242a6.26,6.26,0,0,0-7.742,6.134c.006.939.018,1.968.025,3.234a1.824,1.824,0,0,1-.99-1.614V11.868a10.113,10.113,0,0,1,10.1-10.1H98.7a10.113,10.113,0,0,1,10.1,10.1v8.276a.883.883,0,1,0,1.766,0V11.868A11.882,11.882,0,0,0,98.7,0H93.18A11.882,11.882,0,0,0,81.312,11.868v8.276a3.6,3.6,0,0,0,2.769,3.491,11.831,11.831,0,0,0,6.726,10.228V34.1a3.684,3.684,0,0,1-3.691,3.681A9.111,9.111,0,0,0,78,46.893v5.217a.883.883,0,0,0,1.766,0V46.893a7.346,7.346,0,0,1,7.35-7.35,5.512,5.512,0,0,0,1.154-.123L89.5,45.014a.884.884,0,0,0,1.529.389l3.178-3.66c.995,1.105,1.022,1.142,1.1,1.208a.883.883,0,0,0,1.084.058c.112-.078.051-.017,1.154-1.285l3.2,3.679a.884.884,0,0,0,1.529-.389l1.232-5.593a5.546,5.546,0,0,0,1.154.123,7.346,7.346,0,0,1,7.35,7.35v5.217a.883.883,0,1,0,1.766,0V46.893a9.111,9.111,0,0,0-9.116-9.116Zm-13.8,5.142-.916-4.155a5.479,5.479,0,0,0,.944-.722l2.142,2.379Zm10.131-17.582c-1.7.179-1.7-1.085-3.109-1.458a2.938,2.938,0,0,0-1.986.232,2.937,2.937,0,0,0-1.986-.232c-1.414.374-1.411,1.638-3.109,1.458a.884.884,0,0,0-.895,1.25,4.612,4.612,0,0,0,3.5,2.546,4.223,4.223,0,0,0,2.492-.56,4.207,4.207,0,0,0,2.492.56,4.612,4.612,0,0,0,3.5-2.546.884.884,0,0,0-.894-1.25Zm-4.547,1.484a.883.883,0,0,0-1.1,0,2.35,2.35,0,0,1-2.956.077c1.77-.634,1.494-1.937,3.063-1.03a.883.883,0,0,0,.884,0c1.565-.9,1.3.4,3.063,1.03A2.351,2.351,0,0,1,96.434,26.821Z" transform="translate(-78 0)" fill="#565656"/>
    </g>
    <g id="woman_1_2" data-name="woman (1)" transform="translate(315.316 581.509)" opacity="0.18">
      <path id="Path_51-2" data-name="Path 51" d="M107.519,42.652a19.892,19.892,0,0,1-17.794-3.474,5.474,5.474,0,0,0,2.924-4.419,11.9,11.9,0,0,0,14.95-8.775.889.889,0,1,0-1.734-.392A10.114,10.114,0,0,1,85.89,23.35V17.871a9.682,9.682,0,0,0,5.088-4.249,25.892,25.892,0,0,0,21.764,8.6.89.89,0,0,0,.592-1.478L113,20.368a8.713,8.713,0,0,1-2.216-5.81V11.946A11.96,11.96,0,0,0,98.836,0H93.28A11.96,11.96,0,0,0,81.334,11.946v9.5a3.674,3.674,0,0,0,2.9,3.586,11.923,11.923,0,0,0,6.66,9.051v.235a3.706,3.706,0,0,1-3.715,3.705A9.17,9.17,0,0,0,78,47.2v5.251a.889.889,0,0,0,1.778,0V47.2a7.394,7.394,0,0,1,7.4-7.4c.163,0,.324-.008.485-.022A21.7,21.7,0,0,0,108,44.365a.889.889,0,0,0-.477-1.713ZM84.112,17.225v5.889a1.891,1.891,0,0,1-1-1.667v-9.5A10.18,10.18,0,0,1,93.28,1.778h5.556A10.18,10.18,0,0,1,109,11.946v2.611a10.488,10.488,0,0,0,1.864,5.973,23.966,23.966,0,0,1-19.392-9.082.889.889,0,0,0-1.522.225,7.915,7.915,0,0,1-5.2,4.7.889.889,0,0,0-.646.855ZM114,47.2v5.251a.889.889,0,0,1-1.778,0V47.2a7.394,7.394,0,0,0-7.4-7.4,5.458,5.458,0,0,1-4.7-2.637.889.889,0,0,1,1.518-.925,3.693,3.693,0,0,0,3.178,1.784A9.171,9.171,0,0,1,114,47.2Z" transform="translate(-78)" fill="#565656"/>
    </g>
    <text id="PM-2" data-name="PM" transform="translate(320 568)" fill="#565656" font-size="19" font-family="Poppins-Regular, Poppins" opacity="0.18"><tspan x="0" y="0">PM</tspan></text>
    <text id="UXD-2" data-name="UXD" transform="translate(393 568)" fill="#565656" font-size="19" font-family="Poppins-Regular, Poppins"><tspan x="0" y="0">UXD</tspan></text>
    <text id="Dev-2" data-name="Dev" transform="translate(315 654)" fill="#565656" font-size="19" font-family="Poppins-Regular, Poppins" opacity="0.18"><tspan x="0" y="0">Dev</tspan></text>
    <text id="Data-2" data-name="Data" transform="translate(389 654)" fill="#565656" font-size="19" font-family="Poppins-Regular, Poppins" opacity="0.17"><tspan x="0" y="0">Data</tspan></text>
    <g id="woman_2_2" data-name="woman (2)" transform="translate(349.282 666.981)">
      <g id="Group_45-2" data-name="Group 45" transform="translate(0)">
        <g id="Group_44-2" data-name="Group 44">
          <path id="Path_52-2" data-name="Path 52" d="M40.9,36.75h-.75V16.5a16.5,16.5,0,0,0-33,0V36.75H6.4A5.257,5.257,0,0,0,1.148,42v3h1.5V42A3.754,3.754,0,0,1,6.4,38.25H11.84l2.089,6.965,1.437-.431-1.693-5.645,9.589,5.753a.749.749,0,0,0,.772,0l9.589-5.753-1.693,5.644,1.437.431,2.09-6.964H40.9A3.754,3.754,0,0,1,44.648,42v3h1.5V42A5.257,5.257,0,0,0,40.9,36.75Zm-17.25,6.625L15.105,38.25h2.542a.749.749,0,0,0,.75-.75V33.256A11.661,11.661,0,0,0,23.5,34.5h.3a11.668,11.668,0,0,0,5.1-1.243V37.5a.749.749,0,0,0,.75.75H32.19Zm.817-24.625H22.83a4.494,4.494,0,0,0-8.657-.785l-1.025-1.025V14.953a6.014,6.014,0,0,0,4.716-3.479c1.491,1.834,4.618,3.325,8.686,4.194A4.506,4.506,0,0,0,24.465,18.75ZM28.9,16.5a3,3,0,1,1-3,3A3,3,0,0,1,28.9,16.5Zm-7.5,3a3,3,0,1,1-3-3A3,3,0,0,1,21.4,19.5Zm-7.483.327a4.495,4.495,0,0,0,8.916.423h1.636a4.495,4.495,0,0,0,8.916-.423l.766-.767v3.256A10.616,10.616,0,0,1,23.777,33h-.263A10.615,10.615,0,0,1,13.148,22.317V19.06Zm18.249-3.415c.651.04,1.31.07,1.985.082v.445h0l-1.025,1.025A4.506,4.506,0,0,0,32.163,16.412ZM38.648,36.75H30.4V32.382a12.258,12.258,0,0,0,5.25-10.065V15.75A.749.749,0,0,0,34.9,15c-9.87,0-16.5-3.1-16.5-6a.75.75,0,0,0-1.5,0,4.5,4.5,0,0,1-4.5,4.5.749.749,0,0,0-.75.75v8.067A12.26,12.26,0,0,0,16.9,32.383V36.75H8.648V16.5a15,15,0,0,1,30,0Z" transform="translate(-1.148)" fill="#565656"/>
        </g>
      </g>
    </g>
    <text id="UXR-2" data-name="UXR" transform="translate(354 732)" fill="#565656" font-size="19" font-family="Poppins-Regular, Poppins"><tspan x="0" y="0">UXR</tspan></text>
    <g id="Group_55" data-name="Group 55" transform="translate(547.995 501.9)">
      <g id="man-3" data-name="man" transform="translate(79.541)">
        <path id="Path_48-3" data-name="Path 48" d="M112.129,44.7v4.973a.842.842,0,0,1-1.684,0V44.7A7,7,0,0,0,103.44,37.7a5.169,5.169,0,0,1-4.447-2.5.842.842,0,0,1,1.438-.876,3.5,3.5,0,0,0,3.009,1.689,8.685,8.685,0,0,1,8.69,8.689ZM97.438,36.266a.842.842,0,0,1-.643,1,8.058,8.058,0,0,1-6.263-1.225A5.106,5.106,0,0,1,86.723,37.7,7,7,0,0,0,79.717,44.7v4.973a.842.842,0,1,1-1.684,0V44.7a8.685,8.685,0,0,1,8.689-8.689,3.51,3.51,0,0,0,3.518-3.509v-.222a11.278,11.278,0,0,1-6.411-9.749,3.435,3.435,0,0,1-2.639-3.328V14.844c-.046-2.136.271-7.487,4.172-11.247C90.18-1.047,97.9-.752,103.585,1.982a.844.844,0,0,1,.178,1.4,11.363,11.363,0,0,1,6.953,5,.93.93,0,0,1,.194.662.852.852,0,0,1-.242.534,5.5,5.5,0,0,0-1.591,3.883v5.743a.842.842,0,0,1-1.684,0V13.466a7.166,7.166,0,0,1,1.636-4.576,9.725,9.725,0,0,0-6.98-4.1l-1.48-.158a.843.843,0,0,1-.231-1.616l.673-.277c-8.765-3.056-18.137.339-18.137,12.095v4.374a1.738,1.738,0,0,0,.947,1.54V15.29A5.9,5.9,0,0,1,89.714,9.4h10.734a5.9,5.9,0,0,1,5.893,5.893v6.893a11.276,11.276,0,0,1-14.435,10.74,5.147,5.147,0,0,1-.441,1.719,6.375,6.375,0,0,0,4.97.98A.842.842,0,0,1,97.438,36.266ZM95.081,31.7a9.587,9.587,0,0,0,9.576-9.576V15.29a4.214,4.214,0,0,0-4.209-4.209H89.714A4.214,4.214,0,0,0,85.5,15.29v6.829A9.587,9.587,0,0,0,95.081,31.7Zm8.524,14.509H101.08a.842.842,0,0,0,0,1.684h2.526a.842.842,0,1,0,0-1.684Z" transform="translate(-78.033 0)" fill="#565656"/>
      </g>
      <g id="woman-3" data-name="woman">
        <path id="Path_49-3" data-name="Path 49" d="M77.41,25.092a1.656,1.656,0,0,0-.589,1.812,6.323,6.323,0,0,1-2.686,7.075.825.825,0,0,1-.9-1.386,4.665,4.665,0,0,0,2-5.212,3.335,3.335,0,0,1,1.171-3.6,4.677,4.677,0,0,0,0-7.323,3.335,3.335,0,0,1-1.171-3.6,4.678,4.678,0,0,0-4.3-5.924A3.335,3.335,0,0,1,67.872,4.7a4.677,4.677,0,0,0-6.964-2.263,3.335,3.335,0,0,1-3.789,0A4.677,4.677,0,0,0,50.154,4.7a3.334,3.334,0,0,1-3.065,2.227,4.677,4.677,0,0,0-4.3,5.924,3.335,3.335,0,0,1-1.171,3.6,4.677,4.677,0,0,0,0,7.323,3.335,3.335,0,0,1,1.171,3.6,4.677,4.677,0,0,0,4.3,5.924,3.335,3.335,0,0,1,2.986,2.025c.437-.038.746-.034.746-.034a3.44,3.44,0,0,0,3.448-3.439V31.64a11.05,11.05,0,0,1-6.292-9.963.825.825,0,1,1,1.65,0,9.386,9.386,0,0,0,18.772,0V17.459a6.609,6.609,0,0,0-6.6-6.6H58.929a14.425,14.425,0,0,1-12.384,9.117.825.825,0,1,1-.162-1.642c5.669-.56,10.4-4.251,11.581-10.07a.825.825,0,0,1,1.617.329c-.042.208-.09.412-.14.616H61.8a8.261,8.261,0,0,1,8.252,8.252c0,.018,0,4.285,0,4.3A11.048,11.048,0,0,1,55.9,32.266a5.055,5.055,0,0,1-1.891,3.563l5,3.874,2.943-2.278a.825.825,0,0,1,1.01,1.305L59.839,41.15v7.537a.825.825,0,1,1-1.65,0V41.15l-5.762-4.461a5.118,5.118,0,0,1-1.605.258,6.862,6.862,0,0,0-6.867,6.866v4.874a.825.825,0,1,1-1.65,0V43.813a8.517,8.517,0,0,1,6.073-8.162,1.654,1.654,0,0,0-1.322-.7A6.326,6.326,0,0,1,41.205,26.9a1.656,1.656,0,0,0-.589-1.812,6.326,6.326,0,0,1,0-9.951,1.656,1.656,0,0,0,.589-1.812,6.326,6.326,0,0,1,5.849-8.051A1.656,1.656,0,0,0,48.6,4.158a6.326,6.326,0,0,1,9.464-3.075,1.656,1.656,0,0,0,1.906,0A6.326,6.326,0,0,1,69.43,4.158a1.656,1.656,0,0,0,1.542,1.12,6.326,6.326,0,0,1,5.849,8.051,1.656,1.656,0,0,0,.589,1.812,6.326,6.326,0,0,1,0,9.951Zm-10.2,10.2a3.428,3.428,0,0,1-2.949-1.656.825.825,0,0,0-1.409.858,5.066,5.066,0,0,0,4.359,2.448,6.863,6.863,0,0,1,6.867,6.866v4.874a.825.825,0,1,0,1.65,0V43.813A8.512,8.512,0,0,0,67.206,35.3Z" transform="translate(-38.197 -0.001)" fill="#565656"/>
      </g>
      <g id="man_1_3" data-name="man (1)" transform="translate(79.458 80.721)">
        <path id="Path_50-3" data-name="Path 50" d="M104.654,37.777a3.669,3.669,0,0,1-3.157-1.772.883.883,0,1,0-1.509.919,5.449,5.449,0,0,0,1.847,1.841l-.915,4.154-2.207-2.541a.885.885,0,1,0-1.287-1.212l-1.553,1.786-3.912-4.346a5.394,5.394,0,0,0,.592-2.072A11.826,11.826,0,0,0,107.7,23.2c0-7.491.009-7.372-.021-7.679a.884.884,0,1,0-1.758.173c.02.2.013.375.013,7.505a10.047,10.047,0,1,1-20.093,0c0-1.99-.021-3.53-.028-4.686a4.494,4.494,0,0,1,5.563-4.406c4.146.994,5.71,3.534,10.983,3.288a.883.883,0,0,0-.083-1.764c-4.742.224-6-2.166-10.488-3.242a6.26,6.26,0,0,0-7.742,6.134c.006.939.018,1.968.025,3.234a1.824,1.824,0,0,1-.99-1.614V11.868a10.113,10.113,0,0,1,10.1-10.1H98.7a10.113,10.113,0,0,1,10.1,10.1v8.276a.883.883,0,1,0,1.766,0V11.868A11.882,11.882,0,0,0,98.7,0H93.18A11.882,11.882,0,0,0,81.312,11.868v8.276a3.6,3.6,0,0,0,2.769,3.491,11.831,11.831,0,0,0,6.726,10.228V34.1a3.684,3.684,0,0,1-3.691,3.681A9.111,9.111,0,0,0,78,46.893v5.217a.883.883,0,0,0,1.766,0V46.893a7.346,7.346,0,0,1,7.35-7.35,5.512,5.512,0,0,0,1.154-.123L89.5,45.014a.884.884,0,0,0,1.529.389l3.178-3.66c.995,1.105,1.022,1.142,1.1,1.208a.883.883,0,0,0,1.084.058c.112-.078.051-.017,1.154-1.285l3.2,3.679a.884.884,0,0,0,1.529-.389l1.232-5.593a5.546,5.546,0,0,0,1.154.123,7.346,7.346,0,0,1,7.35,7.35v5.217a.883.883,0,1,0,1.766,0V46.893a9.111,9.111,0,0,0-9.116-9.116Zm-13.8,5.142-.916-4.155a5.479,5.479,0,0,0,.944-.722l2.142,2.379Zm10.131-17.582c-1.7.179-1.7-1.085-3.109-1.458a2.938,2.938,0,0,0-1.986.232,2.937,2.937,0,0,0-1.986-.232c-1.414.374-1.411,1.638-3.109,1.458a.884.884,0,0,0-.895,1.25,4.612,4.612,0,0,0,3.5,2.546,4.223,4.223,0,0,0,2.492-.56,4.207,4.207,0,0,0,2.492.56,4.612,4.612,0,0,0,3.5-2.546.884.884,0,0,0-.894-1.25Zm-4.547,1.484a.883.883,0,0,0-1.1,0,2.35,2.35,0,0,1-2.956.077c1.77-.634,1.494-1.937,3.063-1.03a.883.883,0,0,0,.884,0c1.565-.9,1.3.4,3.063,1.03A2.351,2.351,0,0,1,96.434,26.821Z" transform="translate(-78 0)" fill="#565656"/>
      </g>
      <g id="woman_1_3" data-name="woman (1)" transform="translate(0 80.161)">
        <path id="Path_51-3" data-name="Path 51" d="M107.519,42.652a19.892,19.892,0,0,1-17.794-3.474,5.474,5.474,0,0,0,2.924-4.419,11.9,11.9,0,0,0,14.95-8.775.889.889,0,1,0-1.734-.392A10.114,10.114,0,0,1,85.89,23.35V17.871a9.682,9.682,0,0,0,5.088-4.249,25.892,25.892,0,0,0,21.764,8.6.89.89,0,0,0,.592-1.478L113,20.368a8.713,8.713,0,0,1-2.216-5.81V11.946A11.96,11.96,0,0,0,98.836,0H93.28A11.96,11.96,0,0,0,81.334,11.946v9.5a3.674,3.674,0,0,0,2.9,3.586,11.923,11.923,0,0,0,6.66,9.051v.235a3.706,3.706,0,0,1-3.715,3.705A9.17,9.17,0,0,0,78,47.2v5.251a.889.889,0,0,0,1.778,0V47.2a7.394,7.394,0,0,1,7.4-7.4c.163,0,.324-.008.485-.022A21.7,21.7,0,0,0,108,44.365a.889.889,0,0,0-.477-1.713ZM84.112,17.225v5.889a1.891,1.891,0,0,1-1-1.667v-9.5A10.18,10.18,0,0,1,93.28,1.778h5.556A10.18,10.18,0,0,1,109,11.946v2.611a10.488,10.488,0,0,0,1.864,5.973,23.966,23.966,0,0,1-19.392-9.082.889.889,0,0,0-1.522.225,7.915,7.915,0,0,1-5.2,4.7.889.889,0,0,0-.646.855ZM114,47.2v5.251a.889.889,0,0,1-1.778,0V47.2a7.394,7.394,0,0,0-7.4-7.4,5.458,5.458,0,0,1-4.7-2.637.889.889,0,0,1,1.518-.925,3.693,3.693,0,0,0,3.178,1.784A9.171,9.171,0,0,1,114,47.2Z" transform="translate(-78)" fill="#565656"/>
      </g>
      <text id="PM-3" data-name="PM" transform="translate(5.005 67.1)" fill="#565656" font-size="19" font-family="Poppins-Regular, Poppins"><tspan x="0" y="0">PM</tspan></text>
      <text id="UXD-3" data-name="UXD" transform="translate(77.005 67.1)" fill="#565656" font-size="19" font-family="Poppins-Regular, Poppins"><tspan x="0" y="0">UXD</tspan></text>
      <text id="Dev-3" data-name="Dev" transform="translate(0.005 152.1)" fill="#565656" font-size="19" font-family="Poppins-Regular, Poppins"><tspan x="0" y="0">Dev</tspan></text>
      <text id="Data-3" data-name="Data" transform="translate(73.005 152.1)" fill="#565656" font-size="19" font-family="Poppins-Regular, Poppins"><tspan x="0" y="0">Data</tspan></text>
      <g id="woman_2_3" data-name="woman (2)" transform="translate(33.476 165.081)">
        <g id="Group_45-3" data-name="Group 45" transform="translate(0)">
          <g id="Group_44-3" data-name="Group 44">
            <path id="Path_52-3" data-name="Path 52" d="M40.9,36.75h-.75V16.5a16.5,16.5,0,0,0-33,0V36.75H6.4A5.257,5.257,0,0,0,1.148,42v3h1.5V42A3.754,3.754,0,0,1,6.4,38.25H11.84l2.089,6.965,1.437-.431-1.693-5.645,9.589,5.753a.749.749,0,0,0,.772,0l9.589-5.753-1.693,5.644,1.437.431,2.09-6.964H40.9A3.754,3.754,0,0,1,44.648,42v3h1.5V42A5.257,5.257,0,0,0,40.9,36.75Zm-17.25,6.625L15.105,38.25h2.542a.749.749,0,0,0,.75-.75V33.256A11.661,11.661,0,0,0,23.5,34.5h.3a11.668,11.668,0,0,0,5.1-1.243V37.5a.749.749,0,0,0,.75.75H32.19Zm.817-24.625H22.83a4.494,4.494,0,0,0-8.657-.785l-1.025-1.025V14.953a6.014,6.014,0,0,0,4.716-3.479c1.491,1.834,4.618,3.325,8.686,4.194A4.506,4.506,0,0,0,24.465,18.75ZM28.9,16.5a3,3,0,1,1-3,3A3,3,0,0,1,28.9,16.5Zm-7.5,3a3,3,0,1,1-3-3A3,3,0,0,1,21.4,19.5Zm-7.483.327a4.495,4.495,0,0,0,8.916.423h1.636a4.495,4.495,0,0,0,8.916-.423l.766-.767v3.256A10.616,10.616,0,0,1,23.777,33h-.263A10.615,10.615,0,0,1,13.148,22.317V19.06Zm18.249-3.415c.651.04,1.31.07,1.985.082v.445h0l-1.025,1.025A4.506,4.506,0,0,0,32.163,16.412ZM38.648,36.75H30.4V32.382a12.258,12.258,0,0,0,5.25-10.065V15.75A.749.749,0,0,0,34.9,15c-9.87,0-16.5-3.1-16.5-6a.75.75,0,0,0-1.5,0,4.5,4.5,0,0,1-4.5,4.5.749.749,0,0,0-.75.75v8.067A12.26,12.26,0,0,0,16.9,32.383V36.75H8.648V16.5a15,15,0,0,1,30,0Z" transform="translate(-1.148)" fill="#565656"/>
          </g>
        </g>
      </g>
      <text id="UXR-3" data-name="UXR" transform="translate(38.005 230.1)" fill="#565656" font-size="19" font-family="Poppins-Regular, Poppins"><tspan x="0" y="0">UXR</tspan></text>
    </g>
    <g id="Group_56" data-name="Group 56" transform="translate(785.462 501.9)">
      <g id="man-4" data-name="man" transform="translate(79.541)">
        <path id="Path_48-4" data-name="Path 48" d="M112.129,44.7v4.973a.842.842,0,0,1-1.684,0V44.7A7,7,0,0,0,103.44,37.7a5.169,5.169,0,0,1-4.447-2.5.842.842,0,0,1,1.438-.876,3.5,3.5,0,0,0,3.009,1.689,8.685,8.685,0,0,1,8.69,8.689ZM97.438,36.266a.842.842,0,0,1-.643,1,8.058,8.058,0,0,1-6.263-1.225A5.106,5.106,0,0,1,86.723,37.7,7,7,0,0,0,79.717,44.7v4.973a.842.842,0,1,1-1.684,0V44.7a8.685,8.685,0,0,1,8.689-8.689,3.51,3.51,0,0,0,3.518-3.509v-.222a11.278,11.278,0,0,1-6.411-9.749,3.435,3.435,0,0,1-2.639-3.328V14.844c-.046-2.136.271-7.487,4.172-11.247C90.18-1.047,97.9-.752,103.585,1.982a.844.844,0,0,1,.178,1.4,11.363,11.363,0,0,1,6.953,5,.93.93,0,0,1,.194.662.852.852,0,0,1-.242.534,5.5,5.5,0,0,0-1.591,3.883v5.743a.842.842,0,0,1-1.684,0V13.466a7.166,7.166,0,0,1,1.636-4.576,9.725,9.725,0,0,0-6.98-4.1l-1.48-.158a.843.843,0,0,1-.231-1.616l.673-.277c-8.765-3.056-18.137.339-18.137,12.095v4.374a1.738,1.738,0,0,0,.947,1.54V15.29A5.9,5.9,0,0,1,89.714,9.4h10.734a5.9,5.9,0,0,1,5.893,5.893v6.893a11.276,11.276,0,0,1-14.435,10.74,5.147,5.147,0,0,1-.441,1.719,6.375,6.375,0,0,0,4.97.98A.842.842,0,0,1,97.438,36.266ZM95.081,31.7a9.587,9.587,0,0,0,9.576-9.576V15.29a4.214,4.214,0,0,0-4.209-4.209H89.714A4.214,4.214,0,0,0,85.5,15.29v6.829A9.587,9.587,0,0,0,95.081,31.7Zm8.524,14.509H101.08a.842.842,0,0,0,0,1.684h2.526a.842.842,0,1,0,0-1.684Z" transform="translate(-78.033 0)" fill="#565656"/>
      </g>
      <g id="woman-4" data-name="woman">
        <path id="Path_49-4" data-name="Path 49" d="M77.41,25.092a1.656,1.656,0,0,0-.589,1.812,6.323,6.323,0,0,1-2.686,7.075.825.825,0,0,1-.9-1.386,4.665,4.665,0,0,0,2-5.212,3.335,3.335,0,0,1,1.171-3.6,4.677,4.677,0,0,0,0-7.323,3.335,3.335,0,0,1-1.171-3.6,4.678,4.678,0,0,0-4.3-5.924A3.335,3.335,0,0,1,67.872,4.7a4.677,4.677,0,0,0-6.964-2.263,3.335,3.335,0,0,1-3.789,0A4.677,4.677,0,0,0,50.154,4.7a3.334,3.334,0,0,1-3.065,2.227,4.677,4.677,0,0,0-4.3,5.924,3.335,3.335,0,0,1-1.171,3.6,4.677,4.677,0,0,0,0,7.323,3.335,3.335,0,0,1,1.171,3.6,4.677,4.677,0,0,0,4.3,5.924,3.335,3.335,0,0,1,2.986,2.025c.437-.038.746-.034.746-.034a3.44,3.44,0,0,0,3.448-3.439V31.64a11.05,11.05,0,0,1-6.292-9.963.825.825,0,1,1,1.65,0,9.386,9.386,0,0,0,18.772,0V17.459a6.609,6.609,0,0,0-6.6-6.6H58.929a14.425,14.425,0,0,1-12.384,9.117.825.825,0,1,1-.162-1.642c5.669-.56,10.4-4.251,11.581-10.07a.825.825,0,0,1,1.617.329c-.042.208-.09.412-.14.616H61.8a8.261,8.261,0,0,1,8.252,8.252c0,.018,0,4.285,0,4.3A11.048,11.048,0,0,1,55.9,32.266a5.055,5.055,0,0,1-1.891,3.563l5,3.874,2.943-2.278a.825.825,0,0,1,1.01,1.305L59.839,41.15v7.537a.825.825,0,1,1-1.65,0V41.15l-5.762-4.461a5.118,5.118,0,0,1-1.605.258,6.862,6.862,0,0,0-6.867,6.866v4.874a.825.825,0,1,1-1.65,0V43.813a8.517,8.517,0,0,1,6.073-8.162,1.654,1.654,0,0,0-1.322-.7A6.326,6.326,0,0,1,41.205,26.9a1.656,1.656,0,0,0-.589-1.812,6.326,6.326,0,0,1,0-9.951,1.656,1.656,0,0,0,.589-1.812,6.326,6.326,0,0,1,5.849-8.051A1.656,1.656,0,0,0,48.6,4.158a6.326,6.326,0,0,1,9.464-3.075,1.656,1.656,0,0,0,1.906,0A6.326,6.326,0,0,1,69.43,4.158a1.656,1.656,0,0,0,1.542,1.12,6.326,6.326,0,0,1,5.849,8.051,1.656,1.656,0,0,0,.589,1.812,6.326,6.326,0,0,1,0,9.951Zm-10.2,10.2a3.428,3.428,0,0,1-2.949-1.656.825.825,0,0,0-1.409.858,5.066,5.066,0,0,0,4.359,2.448,6.863,6.863,0,0,1,6.867,6.866v4.874a.825.825,0,1,0,1.65,0V43.813A8.512,8.512,0,0,0,67.206,35.3Z" transform="translate(-38.197 -0.001)" fill="#565656"/>
      </g>
      <g id="man_1_4" data-name="man (1)" transform="translate(79.458 80.721)">
        <path id="Path_50-4" data-name="Path 50" d="M104.654,37.777a3.669,3.669,0,0,1-3.157-1.772.883.883,0,1,0-1.509.919,5.449,5.449,0,0,0,1.847,1.841l-.915,4.154-2.207-2.541a.885.885,0,1,0-1.287-1.212l-1.553,1.786-3.912-4.346a5.394,5.394,0,0,0,.592-2.072A11.826,11.826,0,0,0,107.7,23.2c0-7.491.009-7.372-.021-7.679a.884.884,0,1,0-1.758.173c.02.2.013.375.013,7.505a10.047,10.047,0,1,1-20.093,0c0-1.99-.021-3.53-.028-4.686a4.494,4.494,0,0,1,5.563-4.406c4.146.994,5.71,3.534,10.983,3.288a.883.883,0,0,0-.083-1.764c-4.742.224-6-2.166-10.488-3.242a6.26,6.26,0,0,0-7.742,6.134c.006.939.018,1.968.025,3.234a1.824,1.824,0,0,1-.99-1.614V11.868a10.113,10.113,0,0,1,10.1-10.1H98.7a10.113,10.113,0,0,1,10.1,10.1v8.276a.883.883,0,1,0,1.766,0V11.868A11.882,11.882,0,0,0,98.7,0H93.18A11.882,11.882,0,0,0,81.312,11.868v8.276a3.6,3.6,0,0,0,2.769,3.491,11.831,11.831,0,0,0,6.726,10.228V34.1a3.684,3.684,0,0,1-3.691,3.681A9.111,9.111,0,0,0,78,46.893v5.217a.883.883,0,0,0,1.766,0V46.893a7.346,7.346,0,0,1,7.35-7.35,5.512,5.512,0,0,0,1.154-.123L89.5,45.014a.884.884,0,0,0,1.529.389l3.178-3.66c.995,1.105,1.022,1.142,1.1,1.208a.883.883,0,0,0,1.084.058c.112-.078.051-.017,1.154-1.285l3.2,3.679a.884.884,0,0,0,1.529-.389l1.232-5.593a5.546,5.546,0,0,0,1.154.123,7.346,7.346,0,0,1,7.35,7.35v5.217a.883.883,0,1,0,1.766,0V46.893a9.111,9.111,0,0,0-9.116-9.116Zm-13.8,5.142-.916-4.155a5.479,5.479,0,0,0,.944-.722l2.142,2.379Zm10.131-17.582c-1.7.179-1.7-1.085-3.109-1.458a2.938,2.938,0,0,0-1.986.232,2.937,2.937,0,0,0-1.986-.232c-1.414.374-1.411,1.638-3.109,1.458a.884.884,0,0,0-.895,1.25,4.612,4.612,0,0,0,3.5,2.546,4.223,4.223,0,0,0,2.492-.56,4.207,4.207,0,0,0,2.492.56,4.612,4.612,0,0,0,3.5-2.546.884.884,0,0,0-.894-1.25Zm-4.547,1.484a.883.883,0,0,0-1.1,0,2.35,2.35,0,0,1-2.956.077c1.77-.634,1.494-1.937,3.063-1.03a.883.883,0,0,0,.884,0c1.565-.9,1.3.4,3.063,1.03A2.351,2.351,0,0,1,96.434,26.821Z" transform="translate(-78 0)" fill="#565656"/>
      </g>
      <g id="woman_1_4" data-name="woman (1)" transform="translate(0 80.161)">
        <path id="Path_51-4" data-name="Path 51" d="M107.519,42.652a19.892,19.892,0,0,1-17.794-3.474,5.474,5.474,0,0,0,2.924-4.419,11.9,11.9,0,0,0,14.95-8.775.889.889,0,1,0-1.734-.392A10.114,10.114,0,0,1,85.89,23.35V17.871a9.682,9.682,0,0,0,5.088-4.249,25.892,25.892,0,0,0,21.764,8.6.89.89,0,0,0,.592-1.478L113,20.368a8.713,8.713,0,0,1-2.216-5.81V11.946A11.96,11.96,0,0,0,98.836,0H93.28A11.96,11.96,0,0,0,81.334,11.946v9.5a3.674,3.674,0,0,0,2.9,3.586,11.923,11.923,0,0,0,6.66,9.051v.235a3.706,3.706,0,0,1-3.715,3.705A9.17,9.17,0,0,0,78,47.2v5.251a.889.889,0,0,0,1.778,0V47.2a7.394,7.394,0,0,1,7.4-7.4c.163,0,.324-.008.485-.022A21.7,21.7,0,0,0,108,44.365a.889.889,0,0,0-.477-1.713ZM84.112,17.225v5.889a1.891,1.891,0,0,1-1-1.667v-9.5A10.18,10.18,0,0,1,93.28,1.778h5.556A10.18,10.18,0,0,1,109,11.946v2.611a10.488,10.488,0,0,0,1.864,5.973,23.966,23.966,0,0,1-19.392-9.082.889.889,0,0,0-1.522.225,7.915,7.915,0,0,1-5.2,4.7.889.889,0,0,0-.646.855ZM114,47.2v5.251a.889.889,0,0,1-1.778,0V47.2a7.394,7.394,0,0,0-7.4-7.4,5.458,5.458,0,0,1-4.7-2.637.889.889,0,0,1,1.518-.925,3.693,3.693,0,0,0,3.178,1.784A9.171,9.171,0,0,1,114,47.2Z" transform="translate(-78)" fill="#565656"/>
      </g>
      <text id="PM-4" data-name="PM" transform="translate(4.538 67.1)" fill="#565656" font-size="19" font-family="Poppins-Regular, Poppins"><tspan x="0" y="0">PM</tspan></text>
      <text id="UXD-4" data-name="UXD" transform="translate(76.538 67.1)" fill="#565656" font-size="19" font-family="Poppins-Regular, Poppins"><tspan x="0" y="0">UXD</tspan></text>
      <text id="Dev-4" data-name="Dev" transform="translate(-0.462 152.1)" fill="#565656" font-size="19" font-family="Poppins-Regular, Poppins"><tspan x="0" y="0">Dev</tspan></text>
      <text id="Data-4" data-name="Data" transform="translate(72.538 152.1)" fill="#565656" font-size="19" font-family="Poppins-Regular, Poppins"><tspan x="0" y="0">Data</tspan></text>
      <g id="woman_2_4" data-name="woman (2)" transform="translate(33.476 165.081)">
        <g id="Group_45-4" data-name="Group 45" transform="translate(0)">
          <g id="Group_44-4" data-name="Group 44">
            <path id="Path_52-4" data-name="Path 52" d="M40.9,36.75h-.75V16.5a16.5,16.5,0,0,0-33,0V36.75H6.4A5.257,5.257,0,0,0,1.148,42v3h1.5V42A3.754,3.754,0,0,1,6.4,38.25H11.84l2.089,6.965,1.437-.431-1.693-5.645,9.589,5.753a.749.749,0,0,0,.772,0l9.589-5.753-1.693,5.644,1.437.431,2.09-6.964H40.9A3.754,3.754,0,0,1,44.648,42v3h1.5V42A5.257,5.257,0,0,0,40.9,36.75Zm-17.25,6.625L15.105,38.25h2.542a.749.749,0,0,0,.75-.75V33.256A11.661,11.661,0,0,0,23.5,34.5h.3a11.668,11.668,0,0,0,5.1-1.243V37.5a.749.749,0,0,0,.75.75H32.19Zm.817-24.625H22.83a4.494,4.494,0,0,0-8.657-.785l-1.025-1.025V14.953a6.014,6.014,0,0,0,4.716-3.479c1.491,1.834,4.618,3.325,8.686,4.194A4.506,4.506,0,0,0,24.465,18.75ZM28.9,16.5a3,3,0,1,1-3,3A3,3,0,0,1,28.9,16.5Zm-7.5,3a3,3,0,1,1-3-3A3,3,0,0,1,21.4,19.5Zm-7.483.327a4.495,4.495,0,0,0,8.916.423h1.636a4.495,4.495,0,0,0,8.916-.423l.766-.767v3.256A10.616,10.616,0,0,1,23.777,33h-.263A10.615,10.615,0,0,1,13.148,22.317V19.06Zm18.249-3.415c.651.04,1.31.07,1.985.082v.445h0l-1.025,1.025A4.506,4.506,0,0,0,32.163,16.412ZM38.648,36.75H30.4V32.382a12.258,12.258,0,0,0,5.25-10.065V15.75A.749.749,0,0,0,34.9,15c-9.87,0-16.5-3.1-16.5-6a.75.75,0,0,0-1.5,0,4.5,4.5,0,0,1-4.5,4.5.749.749,0,0,0-.75.75v8.067A12.26,12.26,0,0,0,16.9,32.383V36.75H8.648V16.5a15,15,0,0,1,30,0Z" transform="translate(-1.148)" fill="#565656"/>
          </g>
        </g>
      </g>
      <text id="UXR-4" data-name="UXR" transform="translate(37.538 230.1)" fill="#565656" font-size="19" font-family="Poppins-Regular, Poppins"><tspan x="0" y="0">UXR</tspan></text>
    </g>
    <g id="Group_57" data-name="Group 57" transform="translate(1008.301 501.9)">
      <g id="man-5" data-name="man" transform="translate(79.541)">
        <path id="Path_48-5" data-name="Path 48" d="M112.129,44.7v4.973a.842.842,0,0,1-1.684,0V44.7A7,7,0,0,0,103.44,37.7a5.169,5.169,0,0,1-4.447-2.5.842.842,0,0,1,1.438-.876,3.5,3.5,0,0,0,3.009,1.689,8.685,8.685,0,0,1,8.69,8.689ZM97.438,36.266a.842.842,0,0,1-.643,1,8.058,8.058,0,0,1-6.263-1.225A5.106,5.106,0,0,1,86.723,37.7,7,7,0,0,0,79.717,44.7v4.973a.842.842,0,1,1-1.684,0V44.7a8.685,8.685,0,0,1,8.689-8.689,3.51,3.51,0,0,0,3.518-3.509v-.222a11.278,11.278,0,0,1-6.411-9.749,3.435,3.435,0,0,1-2.639-3.328V14.844c-.046-2.136.271-7.487,4.172-11.247C90.18-1.047,97.9-.752,103.585,1.982a.844.844,0,0,1,.178,1.4,11.363,11.363,0,0,1,6.953,5,.93.93,0,0,1,.194.662.852.852,0,0,1-.242.534,5.5,5.5,0,0,0-1.591,3.883v5.743a.842.842,0,0,1-1.684,0V13.466a7.166,7.166,0,0,1,1.636-4.576,9.725,9.725,0,0,0-6.98-4.1l-1.48-.158a.843.843,0,0,1-.231-1.616l.673-.277c-8.765-3.056-18.137.339-18.137,12.095v4.374a1.738,1.738,0,0,0,.947,1.54V15.29A5.9,5.9,0,0,1,89.714,9.4h10.734a5.9,5.9,0,0,1,5.893,5.893v6.893a11.276,11.276,0,0,1-14.435,10.74,5.147,5.147,0,0,1-.441,1.719,6.375,6.375,0,0,0,4.97.98A.842.842,0,0,1,97.438,36.266ZM95.081,31.7a9.587,9.587,0,0,0,9.576-9.576V15.29a4.214,4.214,0,0,0-4.209-4.209H89.714A4.214,4.214,0,0,0,85.5,15.29v6.829A9.587,9.587,0,0,0,95.081,31.7Zm8.524,14.509H101.08a.842.842,0,0,0,0,1.684h2.526a.842.842,0,1,0,0-1.684Z" transform="translate(-78.033 0)" fill="#565656"/>
      </g>
      <g id="woman-5" data-name="woman">
        <path id="Path_49-5" data-name="Path 49" d="M77.41,25.092a1.656,1.656,0,0,0-.589,1.812,6.323,6.323,0,0,1-2.686,7.075.825.825,0,0,1-.9-1.386,4.665,4.665,0,0,0,2-5.212,3.335,3.335,0,0,1,1.171-3.6,4.677,4.677,0,0,0,0-7.323,3.335,3.335,0,0,1-1.171-3.6,4.678,4.678,0,0,0-4.3-5.924A3.335,3.335,0,0,1,67.872,4.7a4.677,4.677,0,0,0-6.964-2.263,3.335,3.335,0,0,1-3.789,0A4.677,4.677,0,0,0,50.154,4.7a3.334,3.334,0,0,1-3.065,2.227,4.677,4.677,0,0,0-4.3,5.924,3.335,3.335,0,0,1-1.171,3.6,4.677,4.677,0,0,0,0,7.323,3.335,3.335,0,0,1,1.171,3.6,4.677,4.677,0,0,0,4.3,5.924,3.335,3.335,0,0,1,2.986,2.025c.437-.038.746-.034.746-.034a3.44,3.44,0,0,0,3.448-3.439V31.64a11.05,11.05,0,0,1-6.292-9.963.825.825,0,1,1,1.65,0,9.386,9.386,0,0,0,18.772,0V17.459a6.609,6.609,0,0,0-6.6-6.6H58.929a14.425,14.425,0,0,1-12.384,9.117.825.825,0,1,1-.162-1.642c5.669-.56,10.4-4.251,11.581-10.07a.825.825,0,0,1,1.617.329c-.042.208-.09.412-.14.616H61.8a8.261,8.261,0,0,1,8.252,8.252c0,.018,0,4.285,0,4.3A11.048,11.048,0,0,1,55.9,32.266a5.055,5.055,0,0,1-1.891,3.563l5,3.874,2.943-2.278a.825.825,0,0,1,1.01,1.305L59.839,41.15v7.537a.825.825,0,1,1-1.65,0V41.15l-5.762-4.461a5.118,5.118,0,0,1-1.605.258,6.862,6.862,0,0,0-6.867,6.866v4.874a.825.825,0,1,1-1.65,0V43.813a8.517,8.517,0,0,1,6.073-8.162,1.654,1.654,0,0,0-1.322-.7A6.326,6.326,0,0,1,41.205,26.9a1.656,1.656,0,0,0-.589-1.812,6.326,6.326,0,0,1,0-9.951,1.656,1.656,0,0,0,.589-1.812,6.326,6.326,0,0,1,5.849-8.051A1.656,1.656,0,0,0,48.6,4.158a6.326,6.326,0,0,1,9.464-3.075,1.656,1.656,0,0,0,1.906,0A6.326,6.326,0,0,1,69.43,4.158a1.656,1.656,0,0,0,1.542,1.12,6.326,6.326,0,0,1,5.849,8.051,1.656,1.656,0,0,0,.589,1.812,6.326,6.326,0,0,1,0,9.951Zm-10.2,10.2a3.428,3.428,0,0,1-2.949-1.656.825.825,0,0,0-1.409.858,5.066,5.066,0,0,0,4.359,2.448,6.863,6.863,0,0,1,6.867,6.866v4.874a.825.825,0,1,0,1.65,0V43.813A8.512,8.512,0,0,0,67.206,35.3Z" transform="translate(-38.197 -0.001)" fill="#565656"/>
      </g>
      <g id="man_1_5" data-name="man (1)" transform="translate(79.458 80.721)">
        <path id="Path_50-5" data-name="Path 50" d="M104.654,37.777a3.669,3.669,0,0,1-3.157-1.772.883.883,0,1,0-1.509.919,5.449,5.449,0,0,0,1.847,1.841l-.915,4.154-2.207-2.541a.885.885,0,1,0-1.287-1.212l-1.553,1.786-3.912-4.346a5.394,5.394,0,0,0,.592-2.072A11.826,11.826,0,0,0,107.7,23.2c0-7.491.009-7.372-.021-7.679a.884.884,0,1,0-1.758.173c.02.2.013.375.013,7.505a10.047,10.047,0,1,1-20.093,0c0-1.99-.021-3.53-.028-4.686a4.494,4.494,0,0,1,5.563-4.406c4.146.994,5.71,3.534,10.983,3.288a.883.883,0,0,0-.083-1.764c-4.742.224-6-2.166-10.488-3.242a6.26,6.26,0,0,0-7.742,6.134c.006.939.018,1.968.025,3.234a1.824,1.824,0,0,1-.99-1.614V11.868a10.113,10.113,0,0,1,10.1-10.1H98.7a10.113,10.113,0,0,1,10.1,10.1v8.276a.883.883,0,1,0,1.766,0V11.868A11.882,11.882,0,0,0,98.7,0H93.18A11.882,11.882,0,0,0,81.312,11.868v8.276a3.6,3.6,0,0,0,2.769,3.491,11.831,11.831,0,0,0,6.726,10.228V34.1a3.684,3.684,0,0,1-3.691,3.681A9.111,9.111,0,0,0,78,46.893v5.217a.883.883,0,0,0,1.766,0V46.893a7.346,7.346,0,0,1,7.35-7.35,5.512,5.512,0,0,0,1.154-.123L89.5,45.014a.884.884,0,0,0,1.529.389l3.178-3.66c.995,1.105,1.022,1.142,1.1,1.208a.883.883,0,0,0,1.084.058c.112-.078.051-.017,1.154-1.285l3.2,3.679a.884.884,0,0,0,1.529-.389l1.232-5.593a5.546,5.546,0,0,0,1.154.123,7.346,7.346,0,0,1,7.35,7.35v5.217a.883.883,0,1,0,1.766,0V46.893a9.111,9.111,0,0,0-9.116-9.116Zm-13.8,5.142-.916-4.155a5.479,5.479,0,0,0,.944-.722l2.142,2.379Zm10.131-17.582c-1.7.179-1.7-1.085-3.109-1.458a2.938,2.938,0,0,0-1.986.232,2.937,2.937,0,0,0-1.986-.232c-1.414.374-1.411,1.638-3.109,1.458a.884.884,0,0,0-.895,1.25,4.612,4.612,0,0,0,3.5,2.546,4.223,4.223,0,0,0,2.492-.56,4.207,4.207,0,0,0,2.492.56,4.612,4.612,0,0,0,3.5-2.546.884.884,0,0,0-.894-1.25Zm-4.547,1.484a.883.883,0,0,0-1.1,0,2.35,2.35,0,0,1-2.956.077c1.77-.634,1.494-1.937,3.063-1.03a.883.883,0,0,0,.884,0c1.565-.9,1.3.4,3.063,1.03A2.351,2.351,0,0,1,96.434,26.821Z" transform="translate(-78 0)" fill="#565656"/>
      </g>
      <g id="woman_1_5" data-name="woman (1)" transform="translate(0 80.161)">
        <path id="Path_51-5" data-name="Path 51" d="M107.519,42.652a19.892,19.892,0,0,1-17.794-3.474,5.474,5.474,0,0,0,2.924-4.419,11.9,11.9,0,0,0,14.95-8.775.889.889,0,1,0-1.734-.392A10.114,10.114,0,0,1,85.89,23.35V17.871a9.682,9.682,0,0,0,5.088-4.249,25.892,25.892,0,0,0,21.764,8.6.89.89,0,0,0,.592-1.478L113,20.368a8.713,8.713,0,0,1-2.216-5.81V11.946A11.96,11.96,0,0,0,98.836,0H93.28A11.96,11.96,0,0,0,81.334,11.946v9.5a3.674,3.674,0,0,0,2.9,3.586,11.923,11.923,0,0,0,6.66,9.051v.235a3.706,3.706,0,0,1-3.715,3.705A9.17,9.17,0,0,0,78,47.2v5.251a.889.889,0,0,0,1.778,0V47.2a7.394,7.394,0,0,1,7.4-7.4c.163,0,.324-.008.485-.022A21.7,21.7,0,0,0,108,44.365a.889.889,0,0,0-.477-1.713ZM84.112,17.225v5.889a1.891,1.891,0,0,1-1-1.667v-9.5A10.18,10.18,0,0,1,93.28,1.778h5.556A10.18,10.18,0,0,1,109,11.946v2.611a10.488,10.488,0,0,0,1.864,5.973,23.966,23.966,0,0,1-19.392-9.082.889.889,0,0,0-1.522.225,7.915,7.915,0,0,1-5.2,4.7.889.889,0,0,0-.646.855ZM114,47.2v5.251a.889.889,0,0,1-1.778,0V47.2a7.394,7.394,0,0,0-7.4-7.4,5.458,5.458,0,0,1-4.7-2.637.889.889,0,0,1,1.518-.925,3.693,3.693,0,0,0,3.178,1.784A9.171,9.171,0,0,1,114,47.2Z" transform="translate(-78)" fill="#565656"/>
      </g>
      <text id="PM-5" data-name="PM" transform="translate(4.699 67.1)" fill="#565656" font-size="19" font-family="Poppins-Regular, Poppins"><tspan x="0" y="0">PM</tspan></text>
      <text id="UXD-5" data-name="UXD" transform="translate(76.699 67.1)" fill="#565656" font-size="19" font-family="Poppins-Regular, Poppins"><tspan x="0" y="0">UXD</tspan></text>
      <text id="Dev-5" data-name="Dev" transform="translate(-0.301 152.1)" fill="#565656" font-size="19" font-family="Poppins-Regular, Poppins"><tspan x="0" y="0">Dev</tspan></text>
      <text id="Data-5" data-name="Data" transform="translate(72.699 152.1)" fill="#565656" font-size="19" font-family="Poppins-Regular, Poppins"><tspan x="0" y="0">Data</tspan></text>
      <g id="woman_2_5" data-name="woman (2)" transform="translate(33.476 165.081)">
        <g id="Group_45-5" data-name="Group 45" transform="translate(0)">
          <g id="Group_44-5" data-name="Group 44">
            <path id="Path_52-5" data-name="Path 52" d="M40.9,36.75h-.75V16.5a16.5,16.5,0,0,0-33,0V36.75H6.4A5.257,5.257,0,0,0,1.148,42v3h1.5V42A3.754,3.754,0,0,1,6.4,38.25H11.84l2.089,6.965,1.437-.431-1.693-5.645,9.589,5.753a.749.749,0,0,0,.772,0l9.589-5.753-1.693,5.644,1.437.431,2.09-6.964H40.9A3.754,3.754,0,0,1,44.648,42v3h1.5V42A5.257,5.257,0,0,0,40.9,36.75Zm-17.25,6.625L15.105,38.25h2.542a.749.749,0,0,0,.75-.75V33.256A11.661,11.661,0,0,0,23.5,34.5h.3a11.668,11.668,0,0,0,5.1-1.243V37.5a.749.749,0,0,0,.75.75H32.19Zm.817-24.625H22.83a4.494,4.494,0,0,0-8.657-.785l-1.025-1.025V14.953a6.014,6.014,0,0,0,4.716-3.479c1.491,1.834,4.618,3.325,8.686,4.194A4.506,4.506,0,0,0,24.465,18.75ZM28.9,16.5a3,3,0,1,1-3,3A3,3,0,0,1,28.9,16.5Zm-7.5,3a3,3,0,1,1-3-3A3,3,0,0,1,21.4,19.5Zm-7.483.327a4.495,4.495,0,0,0,8.916.423h1.636a4.495,4.495,0,0,0,8.916-.423l.766-.767v3.256A10.616,10.616,0,0,1,23.777,33h-.263A10.615,10.615,0,0,1,13.148,22.317V19.06Zm18.249-3.415c.651.04,1.31.07,1.985.082v.445h0l-1.025,1.025A4.506,4.506,0,0,0,32.163,16.412ZM38.648,36.75H30.4V32.382a12.258,12.258,0,0,0,5.25-10.065V15.75A.749.749,0,0,0,34.9,15c-9.87,0-16.5-3.1-16.5-6a.75.75,0,0,0-1.5,0,4.5,4.5,0,0,1-4.5,4.5.749.749,0,0,0-.75.75v8.067A12.26,12.26,0,0,0,16.9,32.383V36.75H8.648V16.5a15,15,0,0,1,30,0Z" transform="translate(-1.148)" fill="#565656"/>
          </g>
        </g>
      </g>
      <text id="UXR-5" data-name="UXR" transform="translate(37.699 230.1)" fill="#565656" font-size="19" font-family="Poppins-Regular, Poppins"><tspan x="0" y="0">UXR</tspan></text>
    </g>
    <text id="Discuss_problem_space_and_assumptions_about_WhatsApp_forward_messages_" data-name="Discuss problem
space and assumptions 
about WhatsApp forward 
messages
" transform="translate(69 339)" font-size="14" font-family="Poppins-Regular, Poppins"><tspan x="0" y="0">Discuss problem</tspan><tspan x="0" y="21">space and assumptions </tspan><tspan x="0" y="42">about WhatsApp forward </tspan><tspan x="0" y="63">messages</tspan><tspan x="0" y="84"></tspan></text>
    <text id="Prepare_usability_research_plan_and_supporting_material_" data-name="Prepare usability 
research
plan and supporting 
material
" transform="translate(303 339)" font-size="14" font-family="Poppins-Regular, Poppins"><tspan x="0" y="0">Prepare usability </tspan><tspan x="0" y="21">research</tspan><tspan x="0" y="42">plan and supporting </tspan><tspan x="0" y="63">material</tspan><tspan x="0" y="84"></tspan></text>
    <text id="Members_take_turn_as_note-takers_and_observers_as_UXR_conduct_the_study" data-name="Members take turn as
note-takers, and 
observers as UXR
conduct the study" transform="translate(531 339)" font-size="14" font-family="Poppins-Regular, Poppins"><tspan x="0" y="0">Members take turn as</tspan><tspan x="0" y="21">note-takers, and </tspan><tspan x="0" y="42">observers as UXR</tspan><tspan x="0" y="63">conduct the study</tspan></text>
    <text id="_5_min_post_session_team_identify_pain_points_observed_in_the_study" data-name="5 min post session,
team identify pain 
points observed in the 
study" transform="translate(766 339)" font-size="14" font-family="Poppins-Regular, Poppins"><tspan x="0" y="0">5 min post session,</tspan><tspan x="0" y="21">team identify pain </tspan><tspan x="0" y="42">points observed in the </tspan><tspan x="0" y="63">study</tspan></text>
    <text id="UXR_leads_the_discussion_and_include_members_to_discuss_their_observations" data-name="UXR leads the discussion
and include members 
to discuss their observations" transform="translate(968 339)" font-size="14" font-family="Poppins-Regular, Poppins"><tspan x="0" y="0">UXR leads the discussion</tspan><tspan x="0" y="21">and include members </tspan><tspan x="0" y="42">to discuss their observations</tspan></text>
    <text id="ROLE" transform="translate(69 307)" fill="#f8004c" font-size="17" font-family="Montserrat-SemiBold, Montserrat" font-weight="600"><tspan x="0" y="0">ROLE</tspan></text>
    <text id="TEAM" transform="translate(69 470)" fill="#f8004c" font-size="17" font-family="Montserrat-SemiBold, Montserrat" font-weight="600"><tspan x="0" y="0">TEAM</tspan></text>
  </g>
</svg>
