<svg xmlns="http://www.w3.org/2000/svg" xmlns:xlink="http://www.w3.org/1999/xlink" width="1150" height="812" viewBox="0 0 1150 812">
  <defs>
    <clipPath id="clip-ws-study-overview-1230X850">
      <rect width="1150" height="812"/>
    </clipPath>
  </defs>
  <g id="ws-study-overview-1230X850" clip-path="url(#clip-ws-study-overview-1230X850)">
    <rect width="1150" height="812" fill="#f8f9fd"/>
    <text id="RESEARCH_QUESTIONS" data-name="RESEARCH QUESTIONS" transform="translate(32 601)" fill="#f8004c" font-size="17" font-family="Montserrat-SemiBold, Montserrat" font-weight="600"><tspan x="0" y="0">RESEARCH QUESTIONS</tspan></text>
    <g id="Group_66" data-name="Group 66" transform="translate(-42 131)">
      <text id="What_type_of_information_users_expect_from_WhatsApp_forward_messages_" data-name="What type of information users expect from WhatsApp forward messages?  " transform="translate(74 505)" font-size="14" font-family="Poppins-Regular, Poppins"><tspan x="0" y="0" xml:space="preserve">What type of information users expect from WhatsApp forward messages?  </tspan></text>
      <text id="_1:1_interviews" data-name="1:1 interviews" transform="translate(732 506)" font-size="17" font-family="Montserrat-SemiBold, Montserrat" font-weight="600"><tspan x="0" y="0">1:1 interviews</tspan></text>
    </g>
    <g id="Group_67" data-name="Group 67" transform="translate(-42 171)">
      <text id="How_do_users_navigate_and_accomplish_providing_feedback_effectively_and_efficiently_" data-name="How do users navigate and accomplish providing feedback effectively and efficiently? " transform="translate(74 505)" font-size="14" font-family="Poppins-Regular, Poppins"><tspan x="0" y="0">How do users navigate and accomplish providing feedback effectively and efficiently? </tspan></text>
      <text id="_1:1_interviews_and_observations_" data-name="1:1 interviews and observations " transform="translate(732 506)" font-size="17" font-family="Montserrat-SemiBold, Montserrat" font-weight="600"><tspan x="0" y="0">1:1 interviews and observations </tspan></text>
    </g>
    <g id="Group_68" data-name="Group 68" transform="translate(-42 211)">
      <text id="What_are_the_user_s_impressions_of_the_visual_design_" data-name="What are the user’s impressions of the visual design? " transform="translate(74 505)" font-size="14" font-family="Poppins-Regular, Poppins"><tspan x="0" y="0">What are the user’s impressions of the visual design? </tspan></text>
      <text id="_1:1_interview_and_observations_" data-name="1:1 interview and observations " transform="translate(732 506)" font-size="17" font-family="Montserrat-SemiBold, Montserrat" font-weight="600"><tspan x="0" y="0">1:1 interview and observations </tspan></text>
    </g>
    <g id="Group_69" data-name="Group 69" transform="translate(-42 251)">
      <text id="What_captures_a_user_s_attention_to_read_a_WhatsApp_forward_message_" data-name="What captures a user’s attention to read a WhatsApp forward message? " transform="translate(74 505)" font-size="14" font-family="Poppins-Regular, Poppins"><tspan x="0" y="0">What captures a user’s attention to read a WhatsApp forward message? </tspan></text>
      <text id="_eye_tracking" data-name="               eye tracking" transform="translate(662 506)" font-size="17" font-family="Montserrat-SemiBold, Montserrat" font-weight="600"><tspan x="0" y="0" xml:space="preserve">               eye tracking</tspan></text>
    </g>
    <g id="Group_88" data-name="Group 88" transform="translate(-3 -75)">
      <text id="_a_pre_and_post-test_design_within-subject_study_Current_design_X_New_design_" data-name=" a pre and post-test design
 within-subject study
 Current design X New design " transform="translate(506 253)" font-size="16" font-family="Montserrat-Regular, Montserrat"><tspan x="-107.104" y="0" xml:space="preserve"> a pre and post-test design</tspan><tspan x="-84.512" y="32" xml:space="preserve"> within-subject study</tspan><tspan x="-121.296" y="64" xml:space="preserve"> Current design X New design </tspan></text>
      <text id="STUDY_DESIGN" data-name="STUDY DESIGN" transform="translate(440 226)" fill="#f8004c" font-size="17" font-family="Montserrat-SemiBold, Montserrat" font-weight="600"><tspan x="0" y="0">STUDY DESIGN</tspan></text>
      <g id="strategy" transform="translate(474 127)">
        <path id="Path_66" data-name="Path 66" d="M51,39A12.009,12.009,0,0,0,39.051,50H31V42H17V37H31V21h4V31H55V16.414l6.465-6.465a5.242,5.242,0,0,0-7.414-7.414L45.586,11H35v8H31V1H9.586L1,9.586V37H15v5H1V60H31V52h8.051A12,12,0,1,0,51,39ZM45.414,14,53,6.414,54.586,8,47,15.586Zm-.977,1.851,3.712,3.712-4.2,1.4A.731.731,0,0,1,43,20.279a.765.765,0,0,1,.036-.228ZM50,18.586,48.414,17,56,9.414,57.586,11ZM57.758,3a3.243,3.243,0,0,1,2.293,5.535L59,9.586,54.414,5l1.051-1.051A3.222,3.222,0,0,1,57.758,3ZM37,13h6.586l-.46.46-1.988,5.962a2.72,2.72,0,0,0,3.443,3.438l5.959-1.986L53,18.414V29H37ZM4.414,9,9,4.414V9ZM7,11h4V7H25v6H7ZM3,11H5v4H27V5H11V3H29V35H3ZM29,58H3V44H29Zm22,3A10,10,0,1,1,61,51,10.011,10.011,0,0,1,51,61Z"/>
        <path id="Path_67" data-name="Path 67" d="M49,55.586l-3.293-3.293-1.414,1.414L49,58.414l9.707-9.707-1.414-1.414Z"/>
        <path id="Path_68" data-name="Path 68" d="M8,54a3,3,0,1,0-3-3A3,3,0,0,0,8,54Zm0-4a1,1,0,1,1-1,1A1,1,0,0,1,8,50Z"/>
        <path id="Path_69" data-name="Path 69" d="M16,54a3,3,0,1,0-3-3A3,3,0,0,0,16,54Zm0-4a1,1,0,1,1-1,1A1,1,0,0,1,16,50Z"/>
        <path id="Path_70" data-name="Path 70" d="M24,54a3,3,0,1,0-3-3A3,3,0,0,0,24,54Zm0-4a1,1,0,1,1-1,1A1,1,0,0,1,24,50Z"/>
        <path id="Path_71" data-name="Path 71" d="M39,25H51v2H39Z"/>
        <path id="Path_72" data-name="Path 72" d="M5,17H7v2H5Z"/>
        <path id="Path_73" data-name="Path 73" d="M9,17H27v2H9Z"/>
        <path id="Path_74" data-name="Path 74" d="M5,21H27v2H5Z"/>
        <path id="Path_75" data-name="Path 75" d="M5,33H27V25H5Zm2-6H25v4H7Z"/>
      </g>
    </g>
    <g id="Group_87" data-name="Group 87" transform="translate(-52 -76)">
      <text id="a_remote_usability_test_via_Zoom_for_30_minutes._" data-name="a remote usability test 
via Zoom  for 30 minutes.
" transform="translate(185 253)" font-size="16" font-family="Montserrat-Regular, Montserrat"><tspan x="-90.976" y="0">a remote usability test </tspan><tspan x="-100.944" y="33" xml:space="preserve">via Zoom  for 30 minutes.</tspan><tspan x="0" y="66"></tspan></text>
      <g id="testing" transform="translate(153.999 128)">
        <path id="Path_53" data-name="Path 53" d="M161.014,86.629a.916.916,0,0,0-1.295,0l-2.23,2.23-1.266-1.266a.916.916,0,0,0-1.295,1.295l1.913,1.913a.916.916,0,0,0,1.295,0l2.877-2.877A.915.915,0,0,0,161.014,86.629Z" transform="translate(-135.78 -75.819)"/>
        <path id="Path_54" data-name="Path 54" d="M161.014,154.276a.916.916,0,0,0-1.295,0l-2.23,2.23-1.266-1.266a.916.916,0,0,0-1.295,1.295l1.913,1.913a.916.916,0,0,0,1.295,0l2.877-2.877A.915.915,0,0,0,161.014,154.276Z" transform="translate(-135.78 -135.208)"/>
        <path id="Path_55" data-name="Path 55" d="M161.014,223.3a.916.916,0,0,0-1.295,0l-2.23,2.23-1.266-1.266a.916.916,0,0,0-1.295,1.295l1.913,1.913a.916.916,0,0,0,1.295,0l2.877-2.877A.915.915,0,0,0,161.014,223.3Z" transform="translate(-135.78 -195.803)"/>
        <path id="Path_56" data-name="Path 56" d="M4.213,62.5H58.29A4.233,4.233,0,0,0,62.5,58.257V55.79a1.631,1.631,0,0,0-1.626-1.633h-3.13a5.157,5.157,0,0,0,1.2-3.286V37.707a.916.916,0,1,0-1.831,0V50.871a3.369,3.369,0,0,1-2.746,3.286H8.137a3.369,3.369,0,0,1-2.746-3.286V18.956A3.343,3.343,0,0,1,8.73,15.616h4.944v1.963H9.061a1.681,1.681,0,0,0-1.679,1.679V50.521A1.681,1.681,0,0,0,9.061,52.2H53.442a1.681,1.681,0,0,0,1.679-1.679V19.258a1.681,1.681,0,0,0-1.679-1.679H48.829V15.616h4.944a3.343,3.343,0,0,1,3.339,3.339V33.434a.916.916,0,0,0,1.831,0V18.956a5.176,5.176,0,0,0-5.17-5.17H48.829V2.518A2.521,2.521,0,0,0,46.311,0H33.388a.916.916,0,1,0,0,1.831H46.311A.688.688,0,0,1,47,2.518V44.7a.66.66,0,0,1-.659.659H16.165a.66.66,0,0,1-.659-.659V8.938h4.589A2.521,2.521,0,0,0,22.613,6.42V1.831h6.5a.916.916,0,0,0,0-1.831H21.7a.922.922,0,0,0-.647.268L13.943,7.375a.927.927,0,0,0-.268.647v5.763H8.731a5.176,5.176,0,0,0-5.17,5.17V50.871a5.156,5.156,0,0,0,1.2,3.286H1.627A1.631,1.631,0,0,0,0,55.79v2.467A4.233,4.233,0,0,0,4.213,62.5ZM20.782,3.126V6.42a.688.688,0,0,1-.687.687H16.8ZM16.165,47.2H46.339a2.493,2.493,0,0,0,2.49-2.49V19.41H53.29V50.369H9.214V19.41h4.461V44.7a2.493,2.493,0,0,0,2.49,2.49Zm7.153,8.793H39.186v.74a.564.564,0,0,1-.549.564H23.867a.564.564,0,0,1-.549-.564Zm-21.486,0H21.487v.74a2.39,2.39,0,0,0,2.381,2.395H38.636a2.39,2.39,0,0,0,2.381-2.395v-.74H60.671v2.269a2.4,2.4,0,0,1-2.381,2.413H4.213a2.4,2.4,0,0,1-2.381-2.413Z" transform="translate(0 0)"/>
        <path id="Path_57" data-name="Path 57" d="M240.713,84.986H225.8a.916.916,0,1,0,0,1.831h14.917a.916.916,0,1,0,0-1.831Z" transform="translate(-197.427 -74.612)"/>
        <path id="Path_58" data-name="Path 58" d="M240.713,114.586H225.8a.916.916,0,1,0,0,1.831h14.917a.916.916,0,1,0,0-1.831Z" transform="translate(-197.427 -100.598)"/>
        <path id="Path_59" data-name="Path 59" d="M240.713,154.008H225.8a.916.916,0,1,0,0,1.831h14.917a.916.916,0,1,0,0-1.831Z" transform="translate(-197.427 -135.208)"/>
        <path id="Path_60" data-name="Path 60" d="M240.713,183.608H225.8a.916.916,0,1,0,0,1.831h14.917a.916.916,0,1,0,0-1.831Z" transform="translate(-197.427 -161.194)"/>
        <path id="Path_61" data-name="Path 61" d="M240.713,223.029H225.8a.916.916,0,1,0,0,1.831h14.917a.916.916,0,1,0,0-1.831Z" transform="translate(-197.427 -195.803)"/>
        <path id="Path_62" data-name="Path 62" d="M240.713,252.629H225.8a.916.916,0,1,0,0,1.831h14.917a.916.916,0,1,0,0-1.831Z" transform="translate(-197.427 -221.79)"/>
        <path id="Path_63" data-name="Path 63" d="M159.719,292.318l-2.23,2.23-1.266-1.266a.916.916,0,1,0-1.295,1.295l1.913,1.913a.915.915,0,0,0,1.295,0l2.877-2.877a.916.916,0,0,0-1.295-1.295Z" transform="translate(-135.78 -256.399)"/>
        <path id="Path_64" data-name="Path 64" d="M240.713,292.05H225.8a.916.916,0,1,0,0,1.831h14.917a.916.916,0,1,0,0-1.831Z" transform="translate(-197.427 -256.399)"/>
        <path id="Path_65" data-name="Path 65" d="M240.713,321.65H225.8a.916.916,0,1,0,0,1.831h14.917a.916.916,0,1,0,0-1.831Z" transform="translate(-197.427 -282.385)"/>
      </g>
      <text id="TEST" transform="translate(164 226)" fill="#f8004c" font-size="17" font-family="Montserrat-SemiBold, Montserrat" font-weight="600"><tspan x="0" y="0">TEST</tspan></text>
    </g>
    <g id="Group_90" data-name="Group 90" transform="translate(-627 191)">
      <text id="uses_WhatsApp_several_times_a_day_sometimes_-_never_read_long_messages" data-name="uses WhatsApp 
several times a day

sometimes - never
read “long” messages" transform="translate(1041 253)" font-size="16" font-family="Montserrat-Regular, Montserrat"><tspan x="-65" y="0">uses WhatsApp </tspan><tspan x="-75.776" y="19">several times a day</tspan><tspan x="0" y="38"></tspan><tspan x="-74.6" y="57">sometimes - never</tspan><tspan x="-86.496" y="76">read “long” messages</tspan></text>
      <text id="SELECTION_CRITERIA" data-name="SELECTION CRITERIA" transform="translate(948 226)" fill="#f8004c" font-size="17" font-family="Montserrat-SemiBold, Montserrat" font-weight="600"><tspan x="0" y="0">SELECTION CRITERIA</tspan></text>
      <g id="decision-making" transform="translate(1003 126)">
        <path id="Path_76" data-name="Path 76" d="M68.667,15.567a13.567,13.567,0,1,0-14.8,13.5v5.223A3.694,3.694,0,0,0,51.4,37.767v6.167H43.333a7.4,7.4,0,1,0-11,0H24.267V37.767A3.694,3.694,0,0,0,21.8,34.294V29.071a13.567,13.567,0,1,0-2.467,0v5.223a3.694,3.694,0,0,0-2.467,3.473v7.4a6.174,6.174,0,0,0,6.167,6.167h7.4V74.767A1.233,1.233,0,0,0,31.667,76H44a1.233,1.233,0,0,0,1.233-1.233V51.333h7.4A6.174,6.174,0,0,0,58.8,45.167v-7.4a3.694,3.694,0,0,0-2.467-3.473V29.071a13.581,13.581,0,0,0,12.333-13.5ZM44,15.567a11.1,11.1,0,1,1,11.1,11.1A11.112,11.112,0,0,1,44,15.567ZM32.9,39a4.933,4.933,0,1,1,4.933,4.933A4.938,4.938,0,0,1,32.9,39ZM9.467,15.567a11.1,11.1,0,1,1,11.1,11.1A11.112,11.112,0,0,1,9.467,15.567Zm46.867,29.6a3.7,3.7,0,0,1-3.7,3.7H44A1.233,1.233,0,0,0,42.767,50.1V73.533h-3.7V59.967H36.6V73.533H32.9V50.1a1.233,1.233,0,0,0-1.233-1.233H23.033a3.7,3.7,0,0,1-3.7-3.7v-7.4a1.233,1.233,0,0,1,2.467,0v7.4A1.233,1.233,0,0,0,23.033,46.4h29.6a1.233,1.233,0,0,0,1.233-1.233v-7.4a1.233,1.233,0,0,1,2.467,0Z" transform="translate(0 0)"/>
        <path id="Path_77" data-name="Path 77" d="M24.626,9.293l-7.761,7.761-2.828-2.828L12.293,15.97l3.7,3.7a1.233,1.233,0,0,0,1.744,0l8.633-8.633Z" transform="translate(1.235 1.702)"/>
        <path id="Path_78" data-name="Path 78" d="M51.16,19.9,52.9,18.16,48.842,14.1,52.9,10.037,51.16,8.293,47.1,12.354,43.037,8.293l-1.744,1.744L45.354,14.1,41.293,18.16,43.037,19.9,47.1,15.842Z" transform="translate(8.002 1.468)"/>
      </g>
    </g>
    <g id="Group_89" data-name="Group 89" transform="translate(-655 191)">
      <text id="PARTICIPANTS" transform="translate(724 226)" fill="#f8004c" font-size="17" font-family="Montserrat-SemiBold, Montserrat" font-weight="600"><tspan x="0" y="0">PARTICIPANTS</tspan></text>
      <g id="Group_70" data-name="Group 70">
        <text id="n_5_participants_" data-name="n=5  participants " transform="translate(719 253)" font-size="16" font-family="Montserrat-Regular, Montserrat"><tspan x="0" y="0" xml:space="preserve">n=5  participants </tspan></text>
        <text id="_18-34_years" data-name=" 18-34 years" transform="translate(743 283)" font-size="16" font-family="Montserrat-Regular, Montserrat"><tspan x="0" y="0" xml:space="preserve"> 18-34 years</tspan></text>
        <text id="_WhatsApp_users_from_India_and_USA." data-name=" WhatsApp users 
from India and USA." transform="translate(707 312)" font-size="16" font-family="Montserrat-Regular, Montserrat"><tspan x="0" y="0" xml:space="preserve"> WhatsApp users </tspan><tspan x="0" y="19">from India and USA.</tspan></text>
      </g>
      <path id="student" d="M72.688,62.205a1.44,1.44,0,0,1-1.335-.9l-.706-1.741c-2.415-5.949-5.256-8.487-9.5-8.487h-5.4a7.917,7.917,0,0,0-4.307,1.164,1.44,1.44,0,0,1-1.52-2.446,10.858,10.858,0,0,1,5.828-1.6h5.4c7.165,0,10.376,5.869,12.168,10.284l.706,1.741a1.44,1.44,0,0,1-1.333,1.981Zm-24.14,0a1.44,1.44,0,0,1-1.335-.9l-.706-1.741c-2.414-5.949-5.255-8.487-9.5-8.487h-5.4c-4.244,0-7.085,2.538-9.5,8.488L21.4,61.307a1.44,1.44,0,0,1-2.668-1.083l.706-1.741c1.792-4.415,5-10.284,12.168-10.284h5.4c7.166,0,10.377,5.869,12.168,10.284l.706,1.741a1.441,1.441,0,0,1-1.334,1.982Zm9.9-16.782a8.084,8.084,0,0,1-2.269-15.842l.054-.017a8.084,8.084,0,1,1,2.215,15.859ZM55.609,32.981a5.2,5.2,0,1,0,7.94,5.385q-.156.006-.313.006A8.052,8.052,0,0,1,55.609,32.981Zm2.759-.844a5.183,5.183,0,0,0,4.869,3.355h.075A5.224,5.224,0,0,0,58.368,32.137ZM34.308,45.424a8.083,8.083,0,0,1-.028-16.166h.061a8.052,8.052,0,0,1,8.043,7.28,1.447,1.447,0,0,1-.006.338c.009.154.013.309.013.465A8.092,8.092,0,0,1,34.308,45.424ZM31.5,32.963a5.2,5.2,0,1,0,7.913,5.4q-.14,0-.28,0A8.051,8.051,0,0,1,31.5,32.963Zm2.765-.826a5.183,5.183,0,0,0,4.869,3.355h.042a5.213,5.213,0,0,0-4.864-3.355Zm23.371-5.405a1.439,1.439,0,0,1-1.2-.643c-1.937-2.912-4.274-4.269-7.354-4.269h-5.4c-3.08,0-5.417,1.356-7.354,4.269a1.44,1.44,0,0,1-2.4-1.595c2.451-3.685,5.732-5.553,9.752-5.553h5.4c4.02,0,7.3,1.869,9.752,5.553a1.44,1.44,0,0,1-1.2,2.237ZM46.378,16.167A8.083,8.083,0,0,1,46.378,0h.033a8.052,8.052,0,0,1,8.044,7.28,1.449,1.449,0,0,1-.006.338c.009.154.013.309.013.465A8.092,8.092,0,0,1,46.378,16.167ZM43.566,3.706a5.2,5.2,0,1,0,7.914,5.4q-.14,0-.281,0A8.051,8.051,0,0,1,43.566,3.706Zm2.765-.826A5.183,5.183,0,0,0,51.2,6.235h.043A5.212,5.212,0,0,0,46.394,2.88Z" transform="translate(741.372 128)"/>
    </g>
    <g id="Group_85" data-name="Group 85" transform="translate(135 -113)">
      <text id="METRICS" transform="translate(545 529)" fill="#f8004c" font-size="17" font-family="Montserrat-SemiBold, Montserrat" font-weight="600"><tspan x="0" y="0">METRICS</tspan></text>
      <text id="time_on_task_task_completion_post-test_satisfaction_survey" data-name="time on task
task completion 
post-test  satisfaction survey" transform="translate(457 541)" font-size="16" font-family="Montserrat-Regular, Montserrat"><tspan x="77.452" y="15">time on task</tspan><tspan x="62.54" y="47">task completion </tspan><tspan x="13.844" y="79" xml:space="preserve">post-test  satisfaction survey</tspan></text>
      <g id="ruler" transform="translate(561 432)">
        <path id="Path_79" data-name="Path 79" d="M46.594,36.859H16.406V1.641A1.537,1.537,0,0,0,15,0H1.406A1.537,1.537,0,0,0,0,1.641V54.359A1.537,1.537,0,0,0,1.406,56H46.594A1.537,1.537,0,0,0,48,54.359V38.5A1.537,1.537,0,0,0,46.594,36.859ZM2.812,3.281H13.594v4.7H10.5A1.537,1.537,0,0,0,9.094,9.625,1.537,1.537,0,0,0,10.5,11.266h3.094v3.719H12a1.537,1.537,0,0,0-1.406,1.641A1.537,1.537,0,0,0,12,18.266h1.594v3.719H10.5a1.66,1.66,0,0,0,0,3.281h3.094v3.719H12a1.66,1.66,0,0,0,0,3.281h1.594v4.594H2.812Zm0,36.859H13.594V52.719H2.812ZM45.187,52.719H16.406V40.141h3.937V43.75a1.537,1.537,0,0,0,1.406,1.641,1.537,1.537,0,0,0,1.406-1.641V40.141h3.187V42a1.423,1.423,0,1,0,2.813,0V40.141h3.187V43.75a1.423,1.423,0,1,0,2.813,0V40.141h3.188V42a1.423,1.423,0,1,0,2.812,0V40.141h4.031Z"/>
        <path id="Path_80" data-name="Path 80" d="M75.644,410.077a1.328,1.328,0,1,0-.916,1.53A1.328,1.328,0,0,0,75.644,410.077Z" transform="translate(-66.549 -362.128)"/>
      </g>
    </g>
    <g id="Group_86" data-name="Group 86" transform="translate(805 -113)">
      <text id="low_fidelity_clickable_wireframes_" data-name="low fidelity clickable
wireframes " transform="translate(193 556)" font-size="16" font-family="Montserrat-Regular, Montserrat"><tspan x="-80.88" y="0">low fidelity clickable</tspan><tspan x="-47.672" y="33">wireframes </tspan></text>
      <text id="ARTIFACT" transform="translate(150 529)" fill="#f8004c" font-size="17" font-family="Montserrat-SemiBold, Montserrat" font-weight="600"><tspan x="0" y="0">ARTIFACT</tspan></text>
      <g id="phone" transform="translate(64.067 432)">
        <g id="Group_73" data-name="Group 73" transform="translate(122.624 3.188)">
          <g id="Group_72" data-name="Group 72" transform="translate(0)">
            <path id="Path_81" data-name="Path 81" d="M216.491,25.6H205.864a1.063,1.063,0,0,0,0,2.125h10.628a1.063,1.063,0,0,0,0-2.125Z" transform="translate(-204.801 -25.6)"/>
          </g>
        </g>
        <g id="Group_75" data-name="Group 75" transform="translate(139.628 3.188)">
          <g id="Group_74" data-name="Group 74" transform="translate(0)">
            <path id="Path_82" data-name="Path 82" d="M343.459,25.6H342.4a1.063,1.063,0,0,0,0,2.125h1.063a1.063,1.063,0,0,0,0-2.125Z" transform="translate(-341.334 -25.6)"/>
          </g>
        </g>
        <g id="Group_77" data-name="Group 77" transform="translate(124.749 54.201)">
          <g id="Group_76" data-name="Group 76" transform="translate(0)">
            <path id="Path_83" data-name="Path 83" d="M227.438,435.2H224.8a2.936,2.936,0,0,0-2.932,2.932v.513a2.935,2.935,0,0,0,2.931,2.931h2.639a2.935,2.935,0,0,0,2.932-2.931v-.513A2.936,2.936,0,0,0,227.438,435.2Zm.806,3.445a.806.806,0,0,1-.806.806H224.8a.807.807,0,0,1-.807-.806v-.513a.807.807,0,0,1,.807-.807h2.638a.807.807,0,0,1,.807.807Z" transform="translate(-221.867 -435.2)"/>
          </g>
        </g>
        <g id="Group_79" data-name="Group 79" transform="translate(110.933)">
          <g id="Group_78" data-name="Group 78" transform="translate(0)">
            <path id="Path_84" data-name="Path 84" d="M143.226,0H114.775a3.847,3.847,0,0,0-3.842,3.842V59.924a3.847,3.847,0,0,0,3.842,3.842h28.45a3.846,3.846,0,0,0,3.842-3.841V3.842A3.846,3.846,0,0,0,143.226,0Zm1.715,59.924a1.718,1.718,0,0,1-1.715,1.716H114.775a1.718,1.718,0,0,1-1.716-1.715V3.842a1.718,1.718,0,0,1,1.716-1.716h28.45a1.718,1.718,0,0,1,1.716,1.716V59.924Z" transform="translate(-110.933)"/>
          </g>
        </g>
        <g id="Group_81" data-name="Group 81" transform="translate(110.933 6.377)">
          <g id="Group_80" data-name="Group 80" transform="translate(0)">
            <path id="Path_85" data-name="Path 85" d="M146,51.2H112a1.063,1.063,0,0,0-1.063,1.063V96.9A1.063,1.063,0,0,0,112,97.961h34.008a1.063,1.063,0,0,0,1.063-1.063V52.263A1.063,1.063,0,0,0,146,51.2Zm-1.063,44.636H113.059V53.326h31.883Z" transform="translate(-110.934 -51.2)"/>
          </g>
        </g>
      </g>
    </g>
    <g id="Group_84" data-name="Group 84" transform="translate(12 -379)">
      <text id="TASKS_FOR_CURRENT_WIREFRAME" data-name="TASKS FOR CURRENT  | WIREFRAME" transform="translate(759 529)" fill="#f8004c" font-size="17" font-family="Montserrat-SemiBold, Montserrat" font-weight="600"><tspan x="0" y="0" xml:space="preserve">TASKS FOR CURRENT  | WIREFRAME</tspan></text>
      <g id="Group_71" data-name="Group 71" transform="translate(6 108)">
        <text id="a_read_important_information_from_the_message" data-name="a) read important information from the
message" transform="translate(913 448)" font-size="16" font-family="Montserrat-Regular, Montserrat"><tspan x="-157.728" y="0">a) read important information from the</tspan><tspan x="-36.216" y="19">message</tspan></text>
        <text id="b_verify_the_information_" data-name="b) verify the information " transform="translate(913 497)" font-size="16" font-family="Montserrat-Regular, Montserrat"><tspan x="-98.832" y="0">b) verify the information </tspan></text>
      </g>
      <g id="list" transform="translate(847.963 432)">
        <g id="Group_83" data-name="Group 83" transform="translate(47.037 0)">
          <g id="Group_82" data-name="Group 82" transform="translate(0 0)">
            <path id="Path_86" data-name="Path 86" d="M88.177,7.861H82.749V5.433c0-.786-.857-1.143-1.643-1.143H76.892A6.389,6.389,0,0,0,70.535,0,6.5,6.5,0,0,0,64.179,4.29H60.036c-.786,0-1.571.357-1.571,1.143V7.861H53.037a6.071,6.071,0,0,0-6,5.785V54.572c0,3.143,2.857,5.428,6,5.428h35.14c3.143,0,6-2.285,6-5.428V13.647A6.071,6.071,0,0,0,88.177,7.861ZM61.322,7.147H65.25a1.572,1.572,0,0,0,1.357-1.286,4.143,4.143,0,0,1,3.928-3.214,4.071,4.071,0,0,1,3.857,3.214,1.571,1.571,0,0,0,1.428,1.286h4.071v5.714H61.322Zm30,47.425c0,1.571-1.571,2.571-3.143,2.571H53.037c-1.571,0-3.143-1-3.143-2.571V13.647a3.214,3.214,0,0,1,3.143-2.928h5.428v3.643a1.5,1.5,0,0,0,1.571,1.357h21.07a1.571,1.571,0,0,0,1.643-1.357V10.718h5.428a3.214,3.214,0,0,1,3.143,2.928V54.572Z" transform="translate(-47.037 0)"/>
            <path id="Path_87" data-name="Path 87" d="M110.3,230.757a1.428,1.428,0,0,0-2-.071l-4.571,4.357-1.928-2a1.429,1.429,0,0,0-2-.071,1.5,1.5,0,0,0,0,2.071l2.928,3a1.285,1.285,0,0,0,1,.429,1.428,1.428,0,0,0,1-.429l5.571-5.285a1.357,1.357,0,0,0,.082-1.917Q110.338,230.8,110.3,230.757Z" transform="translate(-92.225 -198.826)"/>
            <path id="Path_88" data-name="Path 88" d="M216.4,256.034H199.976a1.428,1.428,0,1,0,0,2.857H216.4a1.428,1.428,0,0,0,0-2.857Z" transform="translate(-177.835 -221.032)"/>
            <path id="Path_89" data-name="Path 89" d="M110.3,147.165a1.428,1.428,0,0,0-2-.071l-4.571,4.357-1.928-2a1.428,1.428,0,0,0-2-.071,1.5,1.5,0,0,0,0,2.071l2.928,3a1.285,1.285,0,0,0,1,.429,1.428,1.428,0,0,0,1-.429l5.571-5.285a1.357,1.357,0,0,0,.082-1.917Q110.338,147.2,110.3,147.165Z" transform="translate(-92.225 -126.662)"/>
            <path id="Path_90" data-name="Path 90" d="M216.4,172.442H199.976a1.428,1.428,0,1,0,0,2.857H216.4a1.428,1.428,0,0,0,0-2.857Z" transform="translate(-177.835 -148.868)"/>
            <path id="Path_91" data-name="Path 91" d="M110.3,314.348a1.429,1.429,0,0,0-2-.071l-4.571,4.357-1.928-2a1.429,1.429,0,0,0-2-.071,1.5,1.5,0,0,0,0,2.071l2.928,3a1.285,1.285,0,0,0,1,.429,1.428,1.428,0,0,0,1-.429l5.571-5.285a1.357,1.357,0,0,0,.082-1.917Q110.338,314.388,110.3,314.348Z" transform="translate(-92.225 -270.99)"/>
            <path id="Path_92" data-name="Path 92" d="M216.4,339.626H199.976a1.428,1.428,0,1,0,0,2.857H216.4a1.428,1.428,0,0,0,0-2.857Z" transform="translate(-177.835 -293.196)"/>
          </g>
        </g>
      </g>
    </g>
  </g>
</svg>
