<svg xmlns="http://www.w3.org/2000/svg" xmlns:xlink="http://www.w3.org/1999/xlink" width="285" height="210" viewBox="0 0 285 210">
  <defs>
    <clipPath id="clip-yourstory">
      <rect width="285" height="210"/>
    </clipPath>
  </defs>
  <g id="yourstory" clip-path="url(#clip-yourstory)">
    <rect width="285" height="210" fill="#ef4136"/>
    <g id="Specifications" transform="translate(64 89)">
      <g id="Logos" transform="translate(-50 -164)">
        <path id="YOURSTORY-2" data-name="YOURSTORY" d="M56.243,195.6V185.244L50,164.357h5.165l3.728,14.237h.09l3.728-14.237h4.716l-6.243,20.887V195.6Zm17.023-24.055v16.87c0,2.231.988,3.079,2.56,3.079s2.56-.848,2.56-3.079v-16.87c0-2.232-.988-3.08-2.56-3.08S73.267,169.311,73.267,171.543ZM68.326,188.1V171.855c0-5,2.65-7.855,7.5-7.855s7.5,2.856,7.5,7.855V188.1c0,5-2.65,7.855-7.5,7.855S68.326,193.1,68.326,188.1Zm17.967-23.743h4.941v24.1c0,2.232.988,3.035,2.56,3.035s2.56-.8,2.56-3.035v-24.1h4.671v23.788c0,5-2.515,7.855-7.366,7.855s-7.366-2.856-7.366-7.855ZM119.755,195.6h-5.03a9.54,9.54,0,0,1-.449-3.838v-4.909c0-2.9-.989-3.972-3.234-3.972h-1.707V195.6h-4.941V164.357h7.456c5.121,0,7.322,2.365,7.322,7.186V174c0,3.214-1.034,5.267-3.234,6.293v.089c2.47,1.027,3.278,3.348,3.278,6.606v4.82A9.145,9.145,0,0,0,119.755,195.6Zm-8.04-26.778h-2.38v9.6h1.931c1.842,0,2.965-.8,2.965-3.3v-3.08C114.231,169.8,113.467,168.82,111.715,168.82Zm10.107,3.035c0-5,2.47-7.855,7.276-7.855s7.277,2.856,7.277,7.855v.982H131.7v-1.294c0-2.232-.9-3.08-2.47-3.08s-2.471.848-2.471,3.08c0,2.276.989,3.972,4.223,6.783,4.132,3.615,5.434,6.2,5.434,9.774,0,5-2.515,7.855-7.366,7.855s-7.366-2.856-7.366-7.855v-1.919h4.671v2.232c0,2.231.988,3.035,2.56,3.035s2.561-.8,2.561-3.035c0-2.276-.988-3.972-4.222-6.784C123.124,178.014,121.822,175.425,121.822,171.855Zm15.99-3.035v-4.463h15.272v4.463h-5.166V195.6h-4.941V168.82Zm21.964,2.723v16.87c0,2.231.988,3.079,2.56,3.079s2.561-.848,2.561-3.079v-16.87c0-2.232-.989-3.08-2.561-3.08S159.776,169.311,159.776,171.543ZM154.835,188.1V171.855c0-5,2.65-7.855,7.5-7.855s7.5,2.856,7.5,7.855V188.1c0,5-2.65,7.855-7.5,7.855S154.835,193.1,154.835,188.1Zm33.553,7.5h-5.031a9.56,9.56,0,0,1-.449-3.838v-4.909c0-2.9-.988-3.972-3.234-3.972h-1.707V195.6h-4.94V164.357h7.456c5.12,0,7.321,2.365,7.321,7.186V174c0,3.214-1.033,5.267-3.234,6.293v.089c2.47,1.027,3.279,3.348,3.279,6.606v4.82A9.145,9.145,0,0,0,188.388,195.6Zm-8.04-26.778h-2.381v9.6H179.9c1.841,0,2.964-.8,2.964-3.3v-3.08C182.863,169.8,182.1,168.82,180.348,168.82ZM195.26,195.6V185.244l-6.243-20.887h5.165l3.728,14.237H198l3.728-14.237h4.716L200.2,185.244V195.6Z" fill="#fff" fill-rule="evenodd"/>
      </g>
    </g>
  </g>
</svg>
